<?xml version="1.0" encoding="utf-8" standalone="no"?>
<!DOCTYPE svg PUBLIC "-//W3C//DTD SVG 1.1//EN"
  "http://www.w3.org/Graphics/SVG/1.1/DTD/svg11.dtd">
<svg xmlns:xlink="http://www.w3.org/1999/xlink" width="460.8pt" height="345.6pt" viewBox="0 0 460.8 345.6" xmlns="http://www.w3.org/2000/svg" version="1.1">
 <metadata>
  <rdf:RDF xmlns:dc="http://purl.org/dc/elements/1.1/" xmlns:cc="http://creativecommons.org/ns#" xmlns:rdf="http://www.w3.org/1999/02/22-rdf-syntax-ns#">
   <cc:Work>
    <dc:type rdf:resource="http://purl.org/dc/dcmitype/StillImage"/>
    <dc:date>2023-02-17T21:09:57.022218</dc:date>
    <dc:format>image/svg+xml</dc:format>
    <dc:creator>
     <cc:Agent>
      <dc:title>Matplotlib v3.6.2, https://matplotlib.org/</dc:title>
     </cc:Agent>
    </dc:creator>
   </cc:Work>
  </rdf:RDF>
 </metadata>
 <defs>
  <style type="text/css">*{stroke-linejoin: round; stroke-linecap: butt}</style>
 </defs>
 <g id="figure_1">
  <g id="patch_1">
   <path d="M 0 345.6 
L 460.8 345.6 
L 460.8 0 
L 0 0 
z
" style="fill: #ffffff"/>
  </g>
  <g id="axes_1">
   <g id="patch_2">
    <path d="M 57.6 307.584 
L 414.72 307.584 
L 414.72 41.472 
L 57.6 41.472 
z
" style="fill: #ffffff"/>
   </g>
   <g id="matplotlib.axis_1">
    <g id="xtick_1">
     <g id="line2d_1">
      <defs>
       <path id="mbcdefa1424" d="M 0 0 
L 0 3.5 
" style="stroke: #000000; stroke-width: 0.8"/>
      </defs>
      <g>
       <use xlink:href="#mbcdefa1424" x="83.963958" y="307.584" style="stroke: #000000; stroke-width: 0.8"/>
      </g>
     </g>
     <g id="text_1">
      <!-- −15 -->
      <g transform="translate(73.411614 322.182437) scale(0.1 -0.1)">
       <defs>
        <path id="DejaVuSans-2212" d="M 678 2272 
L 4684 2272 
L 4684 1741 
L 678 1741 
L 678 2272 
z
" transform="scale(0.015625)"/>
        <path id="DejaVuSans-31" d="M 794 531 
L 1825 531 
L 1825 4091 
L 703 3866 
L 703 4441 
L 1819 4666 
L 2450 4666 
L 2450 531 
L 3481 531 
L 3481 0 
L 794 0 
L 794 531 
z
" transform="scale(0.015625)"/>
        <path id="DejaVuSans-35" d="M 691 4666 
L 3169 4666 
L 3169 4134 
L 1269 4134 
L 1269 2991 
Q 1406 3038 1543 3061 
Q 1681 3084 1819 3084 
Q 2600 3084 3056 2656 
Q 3513 2228 3513 1497 
Q 3513 744 3044 326 
Q 2575 -91 1722 -91 
Q 1428 -91 1123 -41 
Q 819 9 494 109 
L 494 744 
Q 775 591 1075 516 
Q 1375 441 1709 441 
Q 2250 441 2565 725 
Q 2881 1009 2881 1497 
Q 2881 1984 2565 2268 
Q 2250 2553 1709 2553 
Q 1456 2553 1204 2497 
Q 953 2441 691 2322 
L 691 4666 
z
" transform="scale(0.015625)"/>
       </defs>
       <use xlink:href="#DejaVuSans-2212"/>
       <use xlink:href="#DejaVuSans-31" x="83.789062"/>
       <use xlink:href="#DejaVuSans-35" x="147.412109"/>
      </g>
     </g>
    </g>
    <g id="xtick_2">
     <g id="line2d_2">
      <g>
       <use xlink:href="#mbcdefa1424" x="134.695972" y="307.584" style="stroke: #000000; stroke-width: 0.8"/>
      </g>
     </g>
     <g id="text_2">
      <!-- −10 -->
      <g transform="translate(124.143628 322.182437) scale(0.1 -0.1)">
       <defs>
        <path id="DejaVuSans-30" d="M 2034 4250 
Q 1547 4250 1301 3770 
Q 1056 3291 1056 2328 
Q 1056 1369 1301 889 
Q 1547 409 2034 409 
Q 2525 409 2770 889 
Q 3016 1369 3016 2328 
Q 3016 3291 2770 3770 
Q 2525 4250 2034 4250 
z
M 2034 4750 
Q 2819 4750 3233 4129 
Q 3647 3509 3647 2328 
Q 3647 1150 3233 529 
Q 2819 -91 2034 -91 
Q 1250 -91 836 529 
Q 422 1150 422 2328 
Q 422 3509 836 4129 
Q 1250 4750 2034 4750 
z
" transform="scale(0.015625)"/>
       </defs>
       <use xlink:href="#DejaVuSans-2212"/>
       <use xlink:href="#DejaVuSans-31" x="83.789062"/>
       <use xlink:href="#DejaVuSans-30" x="147.412109"/>
      </g>
     </g>
    </g>
    <g id="xtick_3">
     <g id="line2d_3">
      <g>
       <use xlink:href="#mbcdefa1424" x="185.427986" y="307.584" style="stroke: #000000; stroke-width: 0.8"/>
      </g>
     </g>
     <g id="text_3">
      <!-- −5 -->
      <g transform="translate(178.056892 322.182437) scale(0.1 -0.1)">
       <use xlink:href="#DejaVuSans-2212"/>
       <use xlink:href="#DejaVuSans-35" x="83.789062"/>
      </g>
     </g>
    </g>
    <g id="xtick_4">
     <g id="line2d_4">
      <g>
       <use xlink:href="#mbcdefa1424" x="236.16" y="307.584" style="stroke: #000000; stroke-width: 0.8"/>
      </g>
     </g>
     <g id="text_4">
      <!-- 0 -->
      <g transform="translate(232.97875 322.182437) scale(0.1 -0.1)">
       <use xlink:href="#DejaVuSans-30"/>
      </g>
     </g>
    </g>
    <g id="xtick_5">
     <g id="line2d_5">
      <g>
       <use xlink:href="#mbcdefa1424" x="286.892014" y="307.584" style="stroke: #000000; stroke-width: 0.8"/>
      </g>
     </g>
     <g id="text_5">
      <!-- 5 -->
      <g transform="translate(283.710764 322.182437) scale(0.1 -0.1)">
       <use xlink:href="#DejaVuSans-35"/>
      </g>
     </g>
    </g>
    <g id="xtick_6">
     <g id="line2d_6">
      <g>
       <use xlink:href="#mbcdefa1424" x="337.624028" y="307.584" style="stroke: #000000; stroke-width: 0.8"/>
      </g>
     </g>
     <g id="text_6">
      <!-- 10 -->
      <g transform="translate(331.261528 322.182437) scale(0.1 -0.1)">
       <use xlink:href="#DejaVuSans-31"/>
       <use xlink:href="#DejaVuSans-30" x="63.623047"/>
      </g>
     </g>
    </g>
    <g id="xtick_7">
     <g id="line2d_7">
      <g>
       <use xlink:href="#mbcdefa1424" x="388.356042" y="307.584" style="stroke: #000000; stroke-width: 0.8"/>
      </g>
     </g>
     <g id="text_7">
      <!-- 15 -->
      <g transform="translate(381.993542 322.182437) scale(0.1 -0.1)">
       <use xlink:href="#DejaVuSans-31"/>
       <use xlink:href="#DejaVuSans-35" x="63.623047"/>
      </g>
     </g>
    </g>
   </g>
   <g id="matplotlib.axis_2">
    <g id="ytick_1">
     <g id="line2d_8">
      <defs>
       <path id="mfd292c0e44" d="M 0 0 
L -3.5 0 
" style="stroke: #000000; stroke-width: 0.8"/>
      </defs>
      <g>
       <use xlink:href="#mfd292c0e44" x="57.6" y="281.281667" style="stroke: #000000; stroke-width: 0.8"/>
      </g>
     </g>
     <g id="text_8">
      <!-- −15 -->
      <g transform="translate(29.495313 285.080886) scale(0.1 -0.1)">
       <use xlink:href="#DejaVuSans-2212"/>
       <use xlink:href="#DejaVuSans-31" x="83.789062"/>
       <use xlink:href="#DejaVuSans-35" x="147.412109"/>
      </g>
     </g>
    </g>
    <g id="ytick_2">
     <g id="line2d_9">
      <g>
       <use xlink:href="#mfd292c0e44" x="57.6" y="245.697111" style="stroke: #000000; stroke-width: 0.8"/>
      </g>
     </g>
     <g id="text_9">
      <!-- −10 -->
      <g transform="translate(29.495313 249.49633) scale(0.1 -0.1)">
       <use xlink:href="#DejaVuSans-2212"/>
       <use xlink:href="#DejaVuSans-31" x="83.789062"/>
       <use xlink:href="#DejaVuSans-30" x="147.412109"/>
      </g>
     </g>
    </g>
    <g id="ytick_3">
     <g id="line2d_10">
      <g>
       <use xlink:href="#mfd292c0e44" x="57.6" y="210.112556" style="stroke: #000000; stroke-width: 0.8"/>
      </g>
     </g>
     <g id="text_10">
      <!-- −5 -->
      <g transform="translate(35.857813 213.911774) scale(0.1 -0.1)">
       <use xlink:href="#DejaVuSans-2212"/>
       <use xlink:href="#DejaVuSans-35" x="83.789062"/>
      </g>
     </g>
    </g>
    <g id="ytick_4">
     <g id="line2d_11">
      <g>
       <use xlink:href="#mfd292c0e44" x="57.6" y="174.528" style="stroke: #000000; stroke-width: 0.8"/>
      </g>
     </g>
     <g id="text_11">
      <!-- 0 -->
      <g transform="translate(44.2375 178.327219) scale(0.1 -0.1)">
       <use xlink:href="#DejaVuSans-30"/>
      </g>
     </g>
    </g>
    <g id="ytick_5">
     <g id="line2d_12">
      <g>
       <use xlink:href="#mfd292c0e44" x="57.6" y="138.943444" style="stroke: #000000; stroke-width: 0.8"/>
      </g>
     </g>
     <g id="text_12">
      <!-- 5 -->
      <g transform="translate(44.2375 142.742663) scale(0.1 -0.1)">
       <use xlink:href="#DejaVuSans-35"/>
      </g>
     </g>
    </g>
    <g id="ytick_6">
     <g id="line2d_13">
      <g>
       <use xlink:href="#mfd292c0e44" x="57.6" y="103.358889" style="stroke: #000000; stroke-width: 0.8"/>
      </g>
     </g>
     <g id="text_13">
      <!-- 10 -->
      <g transform="translate(37.875 107.158107) scale(0.1 -0.1)">
       <use xlink:href="#DejaVuSans-31"/>
       <use xlink:href="#DejaVuSans-30" x="63.623047"/>
      </g>
     </g>
    </g>
    <g id="ytick_7">
     <g id="line2d_14">
      <g>
       <use xlink:href="#mfd292c0e44" x="57.6" y="67.774333" style="stroke: #000000; stroke-width: 0.8"/>
      </g>
     </g>
     <g id="text_14">
      <!-- 15 -->
      <g transform="translate(37.875 71.573552) scale(0.1 -0.1)">
       <use xlink:href="#DejaVuSans-31"/>
       <use xlink:href="#DejaVuSans-35" x="63.623047"/>
      </g>
     </g>
    </g>
   </g>
   <g id="line2d_15">
    <path d="M 236.16 138.943444 
L 236.29735 137.645975 
L 236.790821 135.395759 
L 237.870338 132.153143 
L 238.693952 130.205594 
L 239.737322 128.070259 
L 241.02063 125.772231 
L 242.561635 123.338504 
L 244.375486 120.797657 
L 246.474556 118.179521 
L 248.868305 115.514832 
L 251.563162 112.834881 
L 254.562447 110.171156 
L 257.866304 107.55499 
L 261.471684 105.017217 
L 265.372335 102.58783 
L 269.558842 100.295662 
L 274.018678 98.168085 
L 278.736296 96.230732 
L 283.693241 94.507239 
L 288.868295 93.019026 
L 294.237641 91.7851 
L 299.775057 90.8219 
L 305.452126 90.143172 
L 311.238471 89.759879 
L 317.10201 89.680154 
L 323.009217 89.909283 
L 328.92541 90.44973 
L 334.815041 91.301189 
L 340.641998 92.460679 
L 346.36991 93.922664 
L 351.962461 95.679204 
L 357.383696 97.720135 
L 362.598336 100.033264 
L 367.572072 102.604595 
L 372.271869 105.418563 
L 376.666243 108.458284 
L 380.725539 111.70581 
L 384.422183 115.142392 
L 387.730923 118.748744 
L 390.629045 122.505298 
L 393.096573 126.392459 
L 395.116438 130.390843 
L 396.674629 134.481505 
L 397.760315 138.646151 
L 398.365937 142.867321 
L 398.487273 147.128566 
L 398.123477 151.414583 
L 397.277086 155.711338 
L 395.953995 160.006156 
L 394.163412 164.287782 
L 391.91777 168.546421 
L 389.232626 172.773746 
L 386.126522 176.962877 
L 382.620828 181.108342 
L 378.73955 185.206009 
L 374.509133 189.252994 
L 369.95822 193.247557 
L 365.117415 197.188971 
L 360.019011 201.077383 
L 354.696717 204.913665 
L 349.185365 208.699246 
L 337.738624 216.125836 
L 325.968395 223.373483 
L 291.530266 244.154102 
L 281.186116 250.750501 
L 271.755496 257.143387 
L 263.385615 263.287251 
L 259.631619 266.247652 
L 256.176419 269.12243 
L 253.024667 271.902301 
L 250.177814 274.57745 
L 247.634122 277.137661 
L 245.388708 279.572455 
L 243.433614 281.871237 
L 241.75791 284.023451 
L 239.186852 287.847064 
L 237.534022 290.965439 
L 236.62096 293.310942 
L 236.177227 295.268334 
L 236.159361 295.488 
L 236.142773 295.268334 
L 235.942247 294.176565 
L 235.322576 292.238508 
L 234.063974 289.498925 
L 233.133148 287.847064 
L 231.972185 286.018733 
L 230.56209 284.023451 
L 228.886386 281.871237 
L 226.931292 279.572455 
L 224.685878 277.137661 
L 222.142186 274.57745 
L 219.295333 271.902301 
L 216.143581 269.12243 
L 212.688381 266.247652 
L 208.934385 263.287251 
L 204.889432 260.249865 
L 195.973649 253.974876 
L 186.065066 247.475488 
L 175.332932 240.789642 
L 158.157344 230.456912 
L 140.444207 219.771011 
L 128.799391 212.435952 
L 123.134635 208.699246 
L 117.623283 204.913665 
L 112.300989 201.077383 
L 107.202585 197.188971 
L 102.36178 193.247557 
L 97.810867 189.252994 
L 93.58045 185.206009 
L 89.699172 181.108342 
L 86.193478 176.962877 
L 83.087374 172.773746 
L 80.40223 168.546421 
L 78.156588 164.287782 
L 76.366005 160.006156 
L 75.042914 155.711338 
L 74.196523 151.414583 
L 73.832727 147.128566 
L 73.954063 142.867321 
L 74.559685 138.646151 
L 75.645371 134.481505 
L 77.203562 130.390843 
L 79.223427 126.392459 
L 81.690955 122.505298 
L 84.589077 118.748744 
L 87.897817 115.142392 
L 91.594461 111.70581 
L 95.653757 108.458284 
L 100.048131 105.418563 
L 104.747928 102.604595 
L 109.721664 100.033264 
L 114.936304 97.720135 
L 120.357539 95.679204 
L 125.95009 93.922664 
L 131.678002 92.460679 
L 137.504959 91.301189 
L 143.39459 90.44973 
L 149.310783 89.909283 
L 155.21799 89.680154 
L 161.081529 89.759879 
L 166.867874 90.143172 
L 172.544943 90.8219 
L 178.082359 91.7851 
L 183.451705 93.019026 
L 188.626759 94.507239 
L 193.583704 96.230732 
L 198.301322 98.168085 
L 202.761158 100.295662 
L 206.947665 102.58783 
L 210.848316 105.017217 
L 214.453696 107.55499 
L 217.757553 110.171156 
L 220.756838 112.834881 
L 223.451695 115.514832 
L 225.845444 118.179521 
L 227.944514 120.797657 
L 229.758365 123.338504 
L 231.29937 125.772231 
L 232.582678 128.070259 
L 233.626048 130.205594 
L 235.075914 133.890007 
L 235.835566 136.65268 
L 236.16 138.943444 
L 236.16 138.943444 
" clip-path="url(#p17cd7da07a)" style="fill: none; stroke: #ff0000; stroke-width: 1.5; stroke-linecap: square"/>
   </g>
   <g id="line2d_16">
    <path d="M 236.16 167.411089 
L 236.286164 166.701552 
L 236.66679 165.663519 
L 237.440327 164.290101 
L 238.222911 163.258304 
L 239.240632 162.189376 
L 240.501261 161.133398 
L 242.002467 160.139966 
L 243.731736 159.256017 
L 245.666648 158.523848 
L 247.775528 157.97942 
L 250.018425 157.651034 
L 252.348402 157.558431 
L 254.713082 157.712346 
L 257.0564 158.114536 
L 259.320492 158.758241 
L 261.447667 159.629053 
L 263.382374 160.706113 
L 265.073108 161.963562 
L 266.474185 163.372149 
L 267.547315 164.900892 
L 268.262926 166.518701 
L 268.601187 168.195864 
L 268.552695 169.905317 
L 268.118799 171.623631 
L 267.311554 173.331684 
L 266.153304 175.014975 
L 264.67591 176.663602 
L 262.919644 178.271911 
L 260.931802 179.837877 
L 257.632122 182.10959 
L 252.93846 185.009401 
L 245.165223 189.7725 
L 242.414114 191.672373 
L 240.163284 193.446886 
L 238.454824 195.049932 
L 237.279582 196.42709 
L 236.579205 197.522185 
L 236.175919 198.588464 
L 236.159872 198.72 
L 236.116449 198.457713 
L 235.740795 197.522185 
L 235.040418 196.42709 
L 233.865176 195.049932 
L 232.156716 193.446886 
L 229.905886 191.672373 
L 227.154777 189.7725 
L 222.872402 187.099293 
L 214.687878 182.10959 
L 211.388198 179.837877 
L 209.400356 178.271911 
L 207.64409 176.663602 
L 206.166696 175.014975 
L 205.008446 173.331684 
L 204.201201 171.623631 
L 203.767305 169.905317 
L 203.718813 168.195864 
L 204.057074 166.518701 
L 204.772685 164.900892 
L 205.845815 163.372149 
L 207.246892 161.963562 
L 208.937626 160.706113 
L 210.872333 159.629053 
L 212.999508 158.758241 
L 215.2636 158.114536 
L 217.606918 157.712346 
L 219.971598 157.558431 
L 222.301575 157.651034 
L 224.544472 157.97942 
L 226.653352 158.523848 
L 228.588264 159.256017 
L 230.317533 160.139966 
L 231.818739 161.133398 
L 233.079368 162.189376 
L 234.097089 163.258304 
L 235.187874 164.776846 
L 235.817932 166.053029 
L 236.15184 167.295189 
L 236.16 167.411089 
L 236.16 167.411089 
" clip-path="url(#p17cd7da07a)" style="fill: none; stroke: #ff0000; stroke-width: 1.5; stroke-linecap: square"/>
   </g>
   <g id="line2d_17">
    <path d="M 236.16 160.294178 
L 236.289774 159.377872 
L 236.593634 158.272803 
L 237.173581 156.799038 
L 238.104252 155.025692 
L 239.446194 153.035863 
L 241.243322 150.922733 
L 243.520979 148.785262 
L 246.284673 146.723687 
L 249.519537 144.835065 
L 251.303471 143.984034 
L 253.190518 143.209093 
L 255.173296 142.519696 
L 257.243318 141.92441 
L 259.391056 141.43084 
L 261.606023 141.04556 
L 263.87685 140.774069 
L 266.191388 140.620751 
L 268.536804 140.588861 
L 270.899687 140.680513 
L 273.266164 140.896692 
L 275.622016 141.237276 
L 277.952799 141.701072 
L 280.243964 142.285866 
L 282.480984 142.988482 
L 284.649479 143.804854 
L 286.735334 144.730105 
L 288.724829 145.758638 
L 290.604747 146.884225 
L 292.362497 148.100114 
L 293.986215 149.399124 
L 295.464873 150.773757 
L 296.788369 152.216298 
L 297.947618 153.718919 
L 298.934629 155.273784 
L 299.742575 156.873137 
L 300.365852 158.509402 
L 300.800126 160.17526 
L 301.042375 161.863728 
L 301.090909 163.568226 
L 300.945391 165.282633 
L 300.606834 167.001335 
L 300.077598 168.719262 
L 299.361365 170.431913 
L 298.463108 172.135368 
L 297.38905 173.826298 
L 296.146609 175.501951 
L 294.744331 177.160137 
L 293.19182 178.799204 
L 289.679288 182.015823 
L 285.703605 185.147753 
L 281.370146 188.196498 
L 276.79145 191.167135 
L 269.716919 195.490801 
L 258.308107 202.378441 
L 252.23454 206.306751 
L 248.668227 208.816746 
L 245.548648 211.215861 
L 242.905867 213.47772 
L 240.749649 215.571864 
L 239.069446 217.465295 
L 237.835126 219.124293 
L 236.709609 221.102975 
L 236.247101 222.387426 
L 236.159745 222.912 
L 236.128162 222.648927 
L 235.82503 221.612203 
L 235.32159 220.51637 
L 234.484874 219.124293 
L 233.250554 217.465295 
L 231.570351 215.571864 
L 229.414133 213.47772 
L 226.771352 211.215861 
L 223.651773 208.816746 
L 220.08546 206.306751 
L 214.011893 202.378441 
L 204.958938 196.899565 
L 195.52855 191.167135 
L 190.949854 188.196498 
L 186.616395 185.147753 
L 182.640712 182.015823 
L 179.12818 178.799204 
L 177.575669 177.160137 
L 176.173391 175.501951 
L 174.93095 173.826298 
L 173.856892 172.135368 
L 172.958635 170.431913 
L 172.242402 168.719262 
L 171.713166 167.001335 
L 171.374609 165.282633 
L 171.229091 163.568226 
L 171.277625 161.863728 
L 171.519874 160.17526 
L 171.954148 158.509402 
L 172.577425 156.873137 
L 173.385371 155.273784 
L 174.372382 153.718919 
L 175.531631 152.216298 
L 176.855127 150.773757 
L 178.333785 149.399124 
L 179.957503 148.100114 
L 181.715253 146.884225 
L 183.595171 145.758638 
L 185.584666 144.730105 
L 187.670521 143.804854 
L 189.839016 142.988482 
L 192.076036 142.285866 
L 194.367201 141.701072 
L 196.697984 141.237276 
L 199.053836 140.896692 
L 201.420313 140.680513 
L 203.783196 140.588861 
L 206.128612 140.620751 
L 208.44315 140.774069 
L 210.713977 141.04556 
L 212.928944 141.43084 
L 215.076682 141.92441 
L 217.146704 142.519696 
L 219.129482 143.209093 
L 222.800463 144.835065 
L 226.035327 146.723687 
L 228.799021 148.785262 
L 231.076678 150.922733 
L 232.873806 153.035863 
L 234.215748 155.025692 
L 235.146419 156.799038 
L 235.907672 158.875104 
L 236.16 160.294178 
L 236.16 160.294178 
" clip-path="url(#p17cd7da07a)" style="fill: none; stroke: #ff0000; stroke-width: 1.5; stroke-linecap: square"/>
   </g>
   <g id="line2d_18">
    <path d="M 236.16 153.177267 
L 236.24241 152.398785 
L 236.538493 151.048655 
L 237.186203 149.103086 
L 238.306393 146.653355 
L 240.000981 143.814302 
L 241.089291 142.289794 
L 242.348734 140.718913 
L 243.784983 139.120099 
L 245.401897 137.512128 
L 247.201468 135.913893 
L 249.183782 134.344194 
L 251.34701 132.82153 
L 253.687401 131.363898 
L 256.199305 129.988597 
L 258.875207 128.712051 
L 261.705778 127.549639 
L 264.679945 126.515544 
L 267.784977 125.622616 
L 271.006585 124.88226 
L 274.329034 124.30434 
L 277.735275 123.897103 
L 281.207083 123.667127 
L 284.725206 123.619292 
L 288.26953 123.75677 
L 291.819246 124.081038 
L 295.353025 124.591913 
L 298.849199 125.287607 
L 302.285946 126.164798 
L 305.641476 127.218723 
L 308.894218 128.443281 
L 312.023002 129.831158 
L 315.007243 131.373957 
L 317.827121 133.062338 
L 320.463746 134.88617 
L 322.899323 136.834686 
L 325.11731 138.896635 
L 327.102554 141.060446 
L 328.841427 143.314379 
L 330.321944 145.646675 
L 331.533863 148.045706 
L 332.468778 150.500103 
L 333.120189 152.99889 
L 333.483562 155.531593 
L 333.556364 158.08834 
L 333.338086 160.65995 
L 332.830251 163.238003 
L 332.036397 165.814894 
L 330.962047 168.383869 
L 329.614662 170.939053 
L 328.003576 173.475447 
L 326.139913 175.988926 
L 324.036497 178.476205 
L 321.70773 180.934805 
L 319.16948 183.362997 
L 316.438932 185.759734 
L 313.534449 188.124583 
L 307.28203 192.759399 
L 300.576365 197.272771 
L 293.589476 201.673806 
L 279.464164 210.17521 
L 269.38216 216.303661 
L 263.175669 220.261501 
L 257.517298 224.097232 
L 252.495369 227.78355 
L 248.169852 231.284658 
L 244.570688 234.55767 
L 241.697225 237.554673 
L 239.518746 240.225271 
L 237.976111 242.519439 
L 236.984413 244.390463 
L 236.290652 246.317139 
L 236.159617 247.104 
L 236.112244 246.709391 
L 235.883424 245.797765 
L 235.335587 244.390463 
L 234.343889 242.519439 
L 232.801254 240.225271 
L 230.622775 237.554673 
L 227.749312 234.55767 
L 224.150148 231.284658 
L 219.824631 227.78355 
L 214.802702 224.097232 
L 209.144331 220.261501 
L 202.93784 216.303661 
L 192.855836 210.17521 
L 178.730524 201.673806 
L 171.743635 197.272771 
L 165.03797 192.759399 
L 158.785551 188.124583 
L 155.881068 185.759734 
L 153.15052 183.362997 
L 150.61227 180.934805 
L 148.283503 178.476205 
L 146.180087 175.988926 
L 144.316424 173.475447 
L 142.705338 170.939053 
L 141.357953 168.383869 
L 140.283603 165.814894 
L 139.489749 163.238003 
L 138.981914 160.65995 
L 138.763636 158.08834 
L 138.836438 155.531593 
L 139.199811 152.99889 
L 139.851222 150.500103 
L 140.786137 148.045706 
L 141.998056 145.646675 
L 143.478573 143.314379 
L 145.217446 141.060446 
L 147.20269 138.896635 
L 149.420677 136.834686 
L 151.856254 134.88617 
L 154.492879 133.062338 
L 157.312757 131.373957 
L 160.296998 129.831158 
L 163.425782 128.443281 
L 166.678524 127.218723 
L 170.034054 126.164798 
L 173.470801 125.287607 
L 176.966975 124.591913 
L 180.500754 124.081038 
L 184.05047 123.75677 
L 187.594794 123.619292 
L 191.112917 123.667127 
L 194.584725 123.897103 
L 197.990966 124.30434 
L 201.313415 124.88226 
L 204.535023 125.622616 
L 207.640055 126.515544 
L 210.614222 127.549639 
L 213.444793 128.712051 
L 216.120695 129.988597 
L 218.632599 131.363898 
L 220.97299 132.82153 
L 223.136218 134.344194 
L 225.118532 135.913893 
L 226.918103 137.512128 
L 228.535017 139.120099 
L 229.971266 140.718913 
L 232.319019 143.814302 
L 234.013607 146.653355 
L 235.133797 149.103086 
L 235.781507 151.048655 
L 236.135521 152.829568 
L 236.16 153.177267 
L 236.16 153.177267 
" clip-path="url(#p17cd7da07a)" style="fill: none; stroke: #ff0000; stroke-width: 1.5; stroke-linecap: square"/>
   </g>
   <g id="line2d_19">
    <path d="M 236.16 146.060355 
L 236.26988 145.02238 
L 236.664657 143.222207 
L 237.52827 140.628114 
L 239.021858 137.361807 
L 240.048504 135.523385 
L 241.281308 133.576403 
L 242.732389 131.543726 
L 244.411645 129.449217 
L 246.326644 127.317466 
L 248.48253 125.173505 
L 250.881957 123.042524 
L 253.525043 120.949592 
L 256.409347 118.919374 
L 259.529868 116.975864 
L 262.879074 115.142129 
L 266.446943 113.440068 
L 270.221037 111.890186 
L 274.186593 110.511392 
L 278.326636 109.320821 
L 282.622113 108.33368 
L 287.052045 107.56312 
L 291.5937 107.020137 
L 296.222777 106.713503 
L 300.913608 106.649723 
L 305.639373 106.833027 
L 310.372328 107.265384 
L 315.084033 107.946551 
L 319.745598 108.874143 
L 324.327928 110.043731 
L 328.801968 111.448963 
L 333.138957 113.081708 
L 337.310669 114.932211 
L 341.289658 116.989276 
L 345.049495 119.24045 
L 348.564994 121.672227 
L 351.812431 124.270248 
L 354.769746 127.019514 
L 357.416738 129.904595 
L 359.735236 132.909839 
L 361.709258 136.019567 
L 363.32515 139.218274 
L 364.571703 142.490804 
L 365.440252 145.82252 
L 365.92475 149.199457 
L 366.021818 152.608453 
L 365.730781 156.037267 
L 365.053668 159.474671 
L 363.995196 162.910525 
L 362.562729 166.335826 
L 360.766216 169.742737 
L 358.618101 173.124596 
L 356.133218 176.475901 
L 353.328662 179.792274 
L 350.22364 183.070407 
L 346.839306 186.307995 
L 343.198576 189.503646 
L 339.325932 192.656777 
L 335.247209 195.767507 
L 330.989374 198.836532 
L 322.048487 204.854362 
L 312.732634 210.722409 
L 298.562125 219.27113 
L 284.821654 227.537314 
L 276.235947 232.885991 
L 268.309081 238.085501 
L 261.176454 243.105492 
L 254.937296 247.903721 
L 249.651734 252.427441 
L 245.339297 256.615729 
L 241.978891 260.40259 
L 239.510252 263.720586 
L 237.836821 266.50474 
L 236.829939 268.696407 
L 236.334202 270.246852 
L 236.159489 271.296 
L 236.146219 271.120267 
L 235.985798 270.246852 
L 235.490061 268.696407 
L 234.483179 266.50474 
L 232.809748 263.720586 
L 230.341109 260.40259 
L 226.980703 256.615729 
L 222.668266 252.427441 
L 217.382704 247.903721 
L 211.143546 243.105492 
L 204.010919 238.085501 
L 196.084053 232.885991 
L 187.498346 227.537314 
L 169.046161 216.453602 
L 154.8971 207.806269 
L 145.739708 201.864996 
L 141.330626 198.836532 
L 137.072791 195.767507 
L 132.994068 192.656777 
L 129.121424 189.503646 
L 125.480694 186.307995 
L 122.09636 183.070407 
L 118.991338 179.792274 
L 116.186782 176.475901 
L 113.701899 173.124596 
L 111.553784 169.742737 
L 109.757271 166.335826 
L 108.324804 162.910525 
L 107.266332 159.474671 
L 106.589219 156.037267 
L 106.298182 152.608453 
L 106.39525 149.199457 
L 106.879748 145.82252 
L 107.748297 142.490804 
L 108.99485 139.218274 
L 110.610742 136.019567 
L 112.584764 132.909839 
L 114.903262 129.904595 
L 117.550254 127.019514 
L 120.507569 124.270248 
L 123.755006 121.672227 
L 127.270505 119.24045 
L 131.030342 116.989276 
L 135.009331 114.932211 
L 139.181043 113.081708 
L 143.518032 111.448963 
L 147.992072 110.043731 
L 152.574402 108.874143 
L 157.235967 107.946551 
L 161.947672 107.265384 
L 166.680627 106.833027 
L 171.406392 106.649723 
L 176.097223 106.713503 
L 180.7263 107.020137 
L 185.267955 107.56312 
L 189.697887 108.33368 
L 193.993364 109.320821 
L 198.133407 110.511392 
L 202.098963 111.890186 
L 205.873057 113.440068 
L 209.440926 115.142129 
L 212.790132 116.975864 
L 215.910653 118.919374 
L 218.794957 120.949592 
L 221.438043 123.042524 
L 223.83747 125.173505 
L 225.993356 127.317466 
L 227.908355 129.449217 
L 229.587611 131.543726 
L 231.038692 133.576403 
L 232.271496 135.523385 
L 234.132838 139.070075 
L 235.292731 142.017606 
L 235.900452 144.227744 
L 236.16 146.060355 
L 236.16 146.060355 
" clip-path="url(#p17cd7da07a)" style="fill: none; stroke: #ff0000; stroke-width: 1.5; stroke-linecap: square"/>
   </g>
   <g id="line2d_20">
    <path d="M 236.16 210.112556 
L 236.29735 211.410025 
L 236.790821 213.660241 
L 237.870338 216.902857 
L 238.693952 218.850406 
L 239.737322 220.985741 
L 241.02063 223.283769 
L 242.561635 225.717496 
L 244.375486 228.258343 
L 246.474556 230.876479 
L 248.868305 233.541168 
L 251.563162 236.221119 
L 254.562447 238.884844 
L 257.866304 241.50101 
L 261.471684 244.038783 
L 265.372335 246.46817 
L 269.558842 248.760338 
L 274.018678 250.887915 
L 278.736296 252.825268 
L 283.693241 254.548761 
L 288.868295 256.036974 
L 294.237641 257.2709 
L 299.775057 258.2341 
L 305.452126 258.912828 
L 311.238471 259.296121 
L 317.10201 259.375846 
L 323.009217 259.146717 
L 328.92541 258.60627 
L 334.815041 257.754811 
L 340.641998 256.595321 
L 346.36991 255.133336 
L 351.962461 253.376796 
L 357.383696 251.335865 
L 362.598336 249.022736 
L 367.572072 246.451405 
L 372.271869 243.637437 
L 376.666243 240.597716 
L 380.725539 237.35019 
L 384.422183 233.913608 
L 387.730923 230.307256 
L 390.629045 226.550702 
L 393.096573 222.663541 
L 395.116438 218.665157 
L 396.674629 214.574495 
L 397.760315 210.409849 
L 398.365937 206.188679 
L 398.487273 201.927434 
L 398.123477 197.641417 
L 397.277086 193.344662 
L 395.953995 189.049844 
L 394.163412 184.768218 
L 391.91777 180.509579 
L 389.232626 176.282254 
L 386.126522 172.093123 
L 382.620828 167.947658 
L 378.73955 163.849991 
L 374.509133 159.803006 
L 369.95822 155.808443 
L 365.117415 151.867029 
L 360.019011 147.978617 
L 354.696717 144.142335 
L 349.185365 140.356754 
L 337.738624 132.930164 
L 325.968395 125.682517 
L 291.530266 104.901898 
L 281.186116 98.305499 
L 271.755496 91.912613 
L 263.385615 85.768749 
L 259.631619 82.808348 
L 256.176419 79.93357 
L 253.024667 77.153699 
L 250.177814 74.47855 
L 247.634122 71.918339 
L 245.388708 69.483545 
L 243.433614 67.184763 
L 241.75791 65.032549 
L 239.186852 61.208936 
L 237.534022 58.090561 
L 236.62096 55.745058 
L 236.177227 53.787666 
L 236.159361 53.568 
L 236.142773 53.787666 
L 235.942247 54.879435 
L 235.322576 56.817492 
L 234.063974 59.557075 
L 233.133148 61.208936 
L 231.972185 63.037267 
L 230.56209 65.032549 
L 228.886386 67.184763 
L 226.931292 69.483545 
L 224.685878 71.918339 
L 222.142186 74.47855 
L 219.295333 77.153699 
L 216.143581 79.93357 
L 212.688381 82.808348 
L 208.934385 85.768749 
L 204.889432 88.806135 
L 195.973649 95.081124 
L 186.065066 101.580512 
L 175.332932 108.266358 
L 158.157344 118.599088 
L 140.444207 129.284989 
L 128.799391 136.620048 
L 123.134635 140.356754 
L 117.623283 144.142335 
L 112.300989 147.978617 
L 107.202585 151.867029 
L 102.36178 155.808443 
L 97.810867 159.803006 
L 93.58045 163.849991 
L 89.699172 167.947658 
L 86.193478 172.093123 
L 83.087374 176.282254 
L 80.40223 180.509579 
L 78.156588 184.768218 
L 76.366005 189.049844 
L 75.042914 193.344662 
L 74.196523 197.641417 
L 73.832727 201.927434 
L 73.954063 206.188679 
L 74.559685 210.409849 
L 75.645371 214.574495 
L 77.203562 218.665157 
L 79.223427 222.663541 
L 81.690955 226.550702 
L 84.589077 230.307256 
L 87.897817 233.913608 
L 91.594461 237.35019 
L 95.653757 240.597716 
L 100.048131 243.637437 
L 104.747928 246.451405 
L 109.721664 249.022736 
L 114.936304 251.335865 
L 120.357539 253.376796 
L 125.95009 255.133336 
L 131.678002 256.595321 
L 137.504959 257.754811 
L 143.39459 258.60627 
L 149.310783 259.146717 
L 155.21799 259.375846 
L 161.081529 259.296121 
L 166.867874 258.912828 
L 172.544943 258.2341 
L 178.082359 257.2709 
L 183.451705 256.036974 
L 188.626759 254.548761 
L 193.583704 252.825268 
L 198.301322 250.887915 
L 202.761158 248.760338 
L 206.947665 246.46817 
L 210.848316 244.038783 
L 214.453696 241.50101 
L 217.757553 238.884844 
L 220.756838 236.221119 
L 223.451695 233.541168 
L 225.845444 230.876479 
L 227.944514 228.258343 
L 229.758365 225.717496 
L 231.29937 223.283769 
L 232.582678 220.985741 
L 233.626048 218.850406 
L 235.075914 215.165993 
L 235.835566 212.40332 
L 236.16 210.112556 
L 236.16 210.112556 
" clip-path="url(#p17cd7da07a)" style="fill: none; stroke: #ff0000; stroke-width: 1.5; stroke-linecap: square"/>
   </g>
   <g id="patch_3">
    <path d="M 57.6 307.584 
L 57.6 41.472 
" style="fill: none; stroke: #000000; stroke-width: 0.8; stroke-linejoin: miter; stroke-linecap: square"/>
   </g>
   <g id="patch_4">
    <path d="M 414.72 307.584 
L 414.72 41.472 
" style="fill: none; stroke: #000000; stroke-width: 0.8; stroke-linejoin: miter; stroke-linecap: square"/>
   </g>
   <g id="patch_5">
    <path d="M 57.6 307.584 
L 414.72 307.584 
" style="fill: none; stroke: #000000; stroke-width: 0.8; stroke-linejoin: miter; stroke-linecap: square"/>
   </g>
   <g id="patch_6">
    <path d="M 57.6 41.472 
L 414.72 41.472 
" style="fill: none; stroke: #000000; stroke-width: 0.8; stroke-linejoin: miter; stroke-linecap: square"/>
   </g>
  </g>
 </g>
 <defs>
  <clipPath id="p17cd7da07a">
   <rect x="57.6" y="41.472" width="357.12" height="266.112"/>
  </clipPath>
 </defs>
</svg>
