<?xml version="1.0" encoding="utf-8" standalone="no"?>
<!DOCTYPE svg PUBLIC "-//W3C//DTD SVG 1.1//EN"
  "http://www.w3.org/Graphics/SVG/1.1/DTD/svg11.dtd">
<svg xmlns:xlink="http://www.w3.org/1999/xlink" width="460.8pt" height="345.6pt" viewBox="0 0 460.8 345.6" xmlns="http://www.w3.org/2000/svg" version="1.1">
 <metadata>
  <rdf:RDF xmlns:dc="http://purl.org/dc/elements/1.1/" xmlns:cc="http://creativecommons.org/ns#" xmlns:rdf="http://www.w3.org/1999/02/22-rdf-syntax-ns#">
   <cc:Work>
    <dc:type rdf:resource="http://purl.org/dc/dcmitype/StillImage"/>
    <dc:date>2023-02-18T12:19:50.537557</dc:date>
    <dc:format>image/svg+xml</dc:format>
    <dc:creator>
     <cc:Agent>
      <dc:title>Matplotlib v3.6.2, https://matplotlib.org/</dc:title>
     </cc:Agent>
    </dc:creator>
   </cc:Work>
  </rdf:RDF>
 </metadata>
 <defs>
  <style type="text/css">*{stroke-linejoin: round; stroke-linecap: butt}</style>
 </defs>
 <g id="figure_1">
  <g id="patch_1">
   <path d="M 0 345.6 
L 460.8 345.6 
L 460.8 0 
L 0 0 
z
" style="fill: #ffffff"/>
  </g>
  <g id="patch_2">
   <path d="M 103.104 307.584 
L 369.216 307.584 
L 369.216 41.472 
L 103.104 41.472 
z
" style="fill: #ffffff"/>
  </g>
  <g id="pane3d_1">
   <g id="patch_3">
    <path d="M 123.197291 241.969309 
L 211.076164 168.307495 
L 209.854564 62.073991 
L 117.770234 129.272941 
" style="fill: #f2f2f2; opacity: 0.5; stroke: #f2f2f2; stroke-linejoin: miter"/>
   </g>
  </g>
  <g id="pane3d_2">
   <g id="patch_4">
    <path d="M 211.076164 168.307495 
L 352.090401 209.294766 
L 357.122702 99.402171 
L 209.854564 62.073991 
" style="fill: #e6e6e6; opacity: 0.5; stroke: #e6e6e6; stroke-linejoin: miter"/>
   </g>
  </g>
  <g id="pane3d_3">
   <g id="patch_5">
    <path d="M 123.197291 241.969309 
L 272.679269 290.790123 
L 352.090401 209.294766 
L 211.076164 168.307495 
" style="fill: #ececec; opacity: 0.5; stroke: #ececec; stroke-linejoin: miter"/>
   </g>
  </g>
  <g id="axis3d_1">
   <g id="line2d_1">
    <path d="M 123.197291 241.969309 
L 272.679269 290.790123 
" style="fill: none; stroke: #000000; stroke-width: 0.8; stroke-linecap: square"/>
   </g>
   <g id="text_1">
    <!-- sin(t) -->
    <g transform="translate(164.477765 299.229045) rotate(-341.912962) scale(0.1 -0.1)">
     <defs>
      <path id="SimHei-73" d="M 2750 900 
Q 2750 500 2437 287 
Q 2125 75 1650 75 
Q 1050 75 725 312 
Q 400 550 400 1000 
L 900 1000 
Q 900 700 1112 600 
Q 1325 500 1625 500 
Q 1925 500 2075 612 
Q 2225 725 2225 900 
Q 2225 1025 2100 1150 
Q 1975 1275 1475 1350 
Q 900 1425 687 1637 
Q 475 1850 475 2200 
Q 475 2500 762 2737 
Q 1050 2975 1600 2975 
Q 2100 2975 2387 2750 
Q 2675 2525 2675 2150 
L 2175 2150 
Q 2175 2375 2012 2462 
Q 1850 2550 1600 2550 
Q 1275 2550 1137 2437 
Q 1000 2325 1000 2175 
Q 1000 2000 1125 1900 
Q 1250 1800 1650 1750 
Q 2300 1650 2525 1437 
Q 2750 1225 2750 900 
z
" transform="scale(0.015625)"/>
      <path id="SimHei-69" d="M 1800 3725 
L 1300 3725 
L 1300 4375 
L 1800 4375 
L 1800 3725 
z
M 1800 125 
L 1300 125 
L 1300 2925 
L 1800 2925 
L 1800 125 
z
" transform="scale(0.015625)"/>
      <path id="SimHei-6e" d="M 2800 125 
L 2300 125 
L 2300 1925 
Q 2300 2225 2150 2400 
Q 2000 2575 1750 2575 
Q 1425 2575 1137 2237 
Q 850 1900 850 1400 
L 850 125 
L 350 125 
L 350 2925 
L 850 2925 
L 850 2400 
Q 1050 2675 1287 2825 
Q 1525 2975 1900 2975 
Q 2350 2975 2575 2725 
Q 2800 2475 2800 2100 
L 2800 125 
z
" transform="scale(0.015625)"/>
      <path id="SimHei-28" d="M 2975 -200 
L 2700 -475 
Q 2075 125 1762 775 
Q 1450 1425 1450 2250 
Q 1450 3075 1762 3725 
Q 2075 4375 2700 5000 
L 2975 4725 
Q 2400 4175 2112 3587 
Q 1825 3000 1825 2250 
Q 1825 1500 2112 912 
Q 2400 325 2975 -200 
z
" transform="scale(0.015625)"/>
      <path id="SimHei-74" d="M 2750 200 
Q 2625 150 2462 112 
Q 2300 75 2025 75 
Q 1575 75 1300 325 
Q 1025 575 1025 1025 
L 1025 2525 
L 175 2525 
L 175 2925 
L 1025 2925 
L 1025 3900 
L 1525 3900 
L 1525 2925 
L 2550 2925 
L 2550 2525 
L 1525 2525 
L 1525 1000 
Q 1525 800 1625 662 
Q 1725 525 2000 525 
Q 2275 525 2450 575 
Q 2625 625 2750 700 
L 2750 200 
z
" transform="scale(0.015625)"/>
      <path id="SimHei-29" d="M 1675 2250 
Q 1675 1425 1362 775 
Q 1050 125 425 -475 
L 150 -200 
Q 725 325 1012 912 
Q 1300 1500 1300 2250 
Q 1300 3000 1012 3587 
Q 725 4175 150 4725 
L 425 5000 
Q 1050 4375 1362 3725 
Q 1675 3075 1675 2250 
z
" transform="scale(0.015625)"/>
     </defs>
     <use xlink:href="#SimHei-73"/>
     <use xlink:href="#SimHei-69" x="50"/>
     <use xlink:href="#SimHei-6e" x="100"/>
     <use xlink:href="#SimHei-28" x="150"/>
     <use xlink:href="#SimHei-74" x="200"/>
     <use xlink:href="#SimHei-29" x="250"/>
    </g>
   </g>
   <g id="Line3DCollection_1">
    <path d="M 132.250094 244.925954 
L 219.651641 170.800047 
L 218.792618 64.339527 
" style="fill: none; stroke: #b0b0b0; stroke-width: 0.8"/>
    <path d="M 163.749795 255.213757 
L 249.454684 179.462615 
L 249.873594 72.217648 
" style="fill: none; stroke: #b0b0b0; stroke-width: 0.8"/>
    <path d="M 195.974313 265.738284 
L 279.886116 188.307831 
L 281.638522 80.269132 
" style="fill: none; stroke: #b0b0b0; stroke-width: 0.8"/>
    <path d="M 228.948956 276.507802 
L 310.966023 197.341533 
L 314.110227 88.499763 
" style="fill: none; stroke: #b0b0b0; stroke-width: 0.8"/>
    <path d="M 262.700225 287.530967 
L 342.715356 206.569811 
L 347.312566 96.915588 
" style="fill: none; stroke: #b0b0b0; stroke-width: 0.8"/>
   </g>
   <g id="xtick_1">
    <g id="line2d_2">
     <path d="M 133.011182 244.28047 
L 130.724653 246.219693 
" style="fill: none; stroke: #000000; stroke-width: 0.8; stroke-linecap: square"/>
    </g>
    <g id="text_2">
     <!-- -1.0 -->
     <g transform="translate(114.721044 267.511662) scale(0.1 -0.1)">
      <defs>
       <path id="SimHei-2d" d="M 2975 2125 
L 125 2125 
L 125 2525 
L 2975 2525 
L 2975 2125 
z
" transform="scale(0.015625)"/>
       <path id="SimHei-31" d="M 1400 3600 
Q 1075 3275 575 2975 
L 575 3450 
Q 1200 3875 1600 4450 
L 1900 4450 
L 1900 150 
L 1400 150 
L 1400 3600 
z
" transform="scale(0.015625)"/>
       <path id="SimHei-2e" d="M 1075 125 
L 500 125 
L 500 675 
L 1075 675 
L 1075 125 
z
" transform="scale(0.015625)"/>
       <path id="SimHei-30" d="M 225 2537 
Q 250 3200 412 3587 
Q 575 3975 875 4225 
Q 1175 4475 1612 4475 
Q 2050 4475 2375 4112 
Q 2700 3750 2800 3200 
Q 2900 2650 2862 1937 
Q 2825 1225 2612 775 
Q 2400 325 1975 150 
Q 1550 -25 1125 187 
Q 700 400 525 750 
Q 350 1100 275 1487 
Q 200 1875 225 2537 
z
M 750 2687 
Q 675 2000 800 1462 
Q 925 925 1212 700 
Q 1500 475 1800 612 
Q 2100 750 2237 1162 
Q 2375 1575 2375 2062 
Q 2375 2550 2337 2950 
Q 2300 3350 2112 3675 
Q 1925 4000 1612 4012 
Q 1300 4025 1062 3700 
Q 825 3375 750 2687 
z
" transform="scale(0.015625)"/>
      </defs>
      <use xlink:href="#SimHei-2d"/>
      <use xlink:href="#SimHei-31" x="50"/>
      <use xlink:href="#SimHei-2e" x="100"/>
      <use xlink:href="#SimHei-30" x="150"/>
     </g>
    </g>
   </g>
   <g id="xtick_2">
    <g id="line2d_3">
     <path d="M 164.496798 254.55351 
L 162.252547 256.537114 
" style="fill: none; stroke: #000000; stroke-width: 0.8; stroke-linecap: square"/>
    </g>
    <g id="text_3">
     <!-- -0.5 -->
     <g transform="translate(146.253215 278.017513) scale(0.1 -0.1)">
      <defs>
       <path id="SimHei-35" d="M 550 1325 
Q 725 650 1150 575 
Q 1575 500 1837 662 
Q 2100 825 2212 1087 
Q 2325 1350 2312 1675 
Q 2300 2000 2137 2225 
Q 1975 2450 1725 2525 
Q 1475 2600 1162 2525 
Q 850 2450 650 2175 
L 225 2225 
Q 275 2375 700 4375 
L 2675 4375 
L 2675 3925 
L 1075 3925 
Q 950 3250 825 2850 
Q 1200 3025 1525 3012 
Q 1850 3000 2150 2862 
Q 2450 2725 2587 2487 
Q 2725 2250 2787 2012 
Q 2850 1775 2837 1500 
Q 2825 1225 2725 937 
Q 2625 650 2425 462 
Q 2225 275 1937 162 
Q 1650 50 1275 75 
Q 900 100 562 350 
Q 225 600 100 1200 
L 550 1325 
z
" transform="scale(0.015625)"/>
      </defs>
      <use xlink:href="#SimHei-2d"/>
      <use xlink:href="#SimHei-30" x="50"/>
      <use xlink:href="#SimHei-2e" x="100"/>
      <use xlink:href="#SimHei-35" x="150"/>
     </g>
    </g>
   </g>
   <g id="xtick_3">
    <g id="line2d_4">
     <path d="M 196.706378 265.062764 
L 194.506969 267.09229 
" style="fill: none; stroke: #000000; stroke-width: 0.8; stroke-linecap: square"/>
    </g>
    <g id="text_4">
     <!-- 0.0 -->
     <g transform="translate(181.013709 288.766026) scale(0.1 -0.1)">
      <use xlink:href="#SimHei-30"/>
      <use xlink:href="#SimHei-2e" x="50"/>
      <use xlink:href="#SimHei-30" x="100"/>
     </g>
    </g>
   </g>
   <g id="xtick_4">
    <g id="line2d_5">
     <path d="M 229.665182 275.816472 
L 227.513323 277.893535 
" style="fill: none; stroke: #000000; stroke-width: 0.8; stroke-linecap: square"/>
    </g>
    <g id="text_5">
     <!-- 0.5 -->
     <g transform="translate(214.028055 299.765706) scale(0.1 -0.1)">
      <use xlink:href="#SimHei-30"/>
      <use xlink:href="#SimHei-2e" x="50"/>
      <use xlink:href="#SimHei-35" x="100"/>
     </g>
    </g>
   </g>
   <g id="xtick_5">
    <g id="line2d_6">
     <path d="M 263.399659 286.823264 
L 261.298215 288.949553 
" style="fill: none; stroke: #000000; stroke-width: 0.8; stroke-linecap: square"/>
    </g>
    <g id="text_6">
     <!-- 1.0 -->
     <g transform="translate(247.82299 311.025463) scale(0.1 -0.1)">
      <use xlink:href="#SimHei-31"/>
      <use xlink:href="#SimHei-2e" x="50"/>
      <use xlink:href="#SimHei-30" x="100"/>
     </g>
    </g>
   </g>
  </g>
  <g id="axis3d_2">
   <g id="line2d_7">
    <path d="M 352.090401 209.294766 
L 272.679269 290.790123 
" style="fill: none; stroke: #000000; stroke-width: 0.8; stroke-linecap: square"/>
   </g>
   <g id="text_7">
    <!-- cos(t) -->
    <g transform="translate(332.832647 289.08516) rotate(-45.742112) scale(0.1 -0.1)">
     <defs>
      <path id="SimHei-63" d="M 2850 1250 
Q 2850 725 2487 400 
Q 2125 75 1575 75 
Q 1025 75 625 462 
Q 225 850 225 1525 
Q 225 2200 625 2587 
Q 1025 2975 1575 2975 
Q 2125 2975 2450 2687 
Q 2775 2400 2775 2000 
L 2225 2000 
Q 2200 2300 2012 2412 
Q 1825 2525 1575 2525 
Q 1275 2525 1025 2287 
Q 775 2050 775 1525 
Q 775 1000 1025 762 
Q 1275 525 1575 525 
Q 1900 525 2100 700 
Q 2300 875 2300 1250 
L 2850 1250 
z
" transform="scale(0.015625)"/>
      <path id="SimHei-6f" d="M 2925 1525 
Q 2925 875 2525 475 
Q 2125 75 1575 75 
Q 1025 75 625 475 
Q 225 875 225 1525 
Q 225 2175 625 2575 
Q 1025 2975 1575 2975 
Q 2125 2975 2525 2575 
Q 2925 2175 2925 1525 
z
M 2375 1525 
Q 2375 2025 2125 2275 
Q 1875 2525 1575 2525 
Q 1275 2525 1025 2275 
Q 775 2025 775 1525 
Q 775 1025 1025 775 
Q 1275 525 1575 525 
Q 1875 525 2125 775 
Q 2375 1025 2375 1525 
z
" transform="scale(0.015625)"/>
     </defs>
     <use xlink:href="#SimHei-63"/>
     <use xlink:href="#SimHei-6f" x="50"/>
     <use xlink:href="#SimHei-73" x="100"/>
     <use xlink:href="#SimHei-28" x="150"/>
     <use xlink:href="#SimHei-74" x="200"/>
     <use xlink:href="#SimHei-29" x="250"/>
    </g>
   </g>
   <g id="Line3DCollection_2">
    <path d="M 124.136717 124.626972 
L 129.251579 236.894485 
L 278.172717 285.152493 
" style="fill: none; stroke: #b0b0b0; stroke-width: 0.8"/>
    <path d="M 145.411454 109.101638 
L 149.506102 219.916742 
L 296.526647 266.316846 
" style="fill: none; stroke: #b0b0b0; stroke-width: 0.8"/>
    <path d="M 165.860143 94.179115 
L 169.007688 203.570126 
L 314.162999 248.217611 
" style="fill: none; stroke: #b0b0b0; stroke-width: 0.8"/>
    <path d="M 185.52998 79.824964 
L 187.797555 187.820087 
L 331.123048 230.812428 
" style="fill: none; stroke: #b0b0b0; stroke-width: 0.8"/>
    <path d="M 204.46463 66.007319 
L 205.913967 172.634551 
L 347.444965 214.062126 
" style="fill: none; stroke: #b0b0b0; stroke-width: 0.8"/>
   </g>
   <g id="xtick_6">
    <g id="line2d_8">
     <path d="M 276.917754 284.745822 
L 280.685889 285.966889 
" style="fill: none; stroke: #000000; stroke-width: 0.8; stroke-linecap: square"/>
    </g>
    <g id="text_8">
     <!-- -1.0 -->
     <g transform="translate(281.053367 305.450804) scale(0.1 -0.1)">
      <use xlink:href="#SimHei-2d"/>
      <use xlink:href="#SimHei-31" x="50"/>
      <use xlink:href="#SimHei-2e" x="100"/>
      <use xlink:href="#SimHei-30" x="150"/>
     </g>
    </g>
   </g>
   <g id="xtick_7">
    <g id="line2d_9">
     <path d="M 295.288951 265.926226 
L 299.005175 267.099077 
" style="fill: none; stroke: #000000; stroke-width: 0.8; stroke-linecap: square"/>
    </g>
    <g id="text_9">
     <!-- -0.5 -->
     <g transform="translate(299.161101 286.336311) scale(0.1 -0.1)">
      <use xlink:href="#SimHei-2d"/>
      <use xlink:href="#SimHei-30" x="50"/>
      <use xlink:href="#SimHei-2e" x="100"/>
      <use xlink:href="#SimHei-35" x="150"/>
     </g>
    </g>
   </g>
   <g id="xtick_8">
    <g id="line2d_10">
     <path d="M 312.942193 247.84211 
L 316.607644 248.969545 
" style="fill: none; stroke: #000000; stroke-width: 0.8; stroke-linecap: square"/>
    </g>
    <g id="text_10">
     <!-- 0.0 -->
     <g transform="translate(319.060475 267.969562) scale(0.1 -0.1)">
      <use xlink:href="#SimHei-30"/>
      <use xlink:href="#SimHei-2e" x="50"/>
      <use xlink:href="#SimHei-30" x="100"/>
     </g>
    </g>
   </g>
   <g id="xtick_9">
    <g id="line2d_11">
     <path d="M 329.918759 230.451186 
L 333.534562 231.535793 
" style="fill: none; stroke: #000000; stroke-width: 0.8; stroke-linecap: square"/>
    </g>
    <g id="text_11">
     <!-- 0.5 -->
     <g transform="translate(335.792258 250.307521) scale(0.1 -0.1)">
      <use xlink:href="#SimHei-30"/>
      <use xlink:href="#SimHei-2e" x="50"/>
      <use xlink:href="#SimHei-35" x="100"/>
     </g>
    </g>
   </g>
   <g id="xtick_10">
    <g id="line2d_12">
     <path d="M 346.256825 213.714346 
L 349.824086 214.758519 
" style="fill: none; stroke: #000000; stroke-width: 0.8; stroke-linecap: square"/>
    </g>
    <g id="text_12">
     <!-- 1.0 -->
     <g transform="translate(351.894148 233.310394) scale(0.1 -0.1)">
      <use xlink:href="#SimHei-31"/>
      <use xlink:href="#SimHei-2e" x="50"/>
      <use xlink:href="#SimHei-30" x="100"/>
     </g>
    </g>
   </g>
  </g>
  <g id="axis3d_3">
   <g id="line2d_13">
    <path d="M 352.090401 209.294766 
L 357.122702 99.402171 
" style="fill: none; stroke: #000000; stroke-width: 0.8; stroke-linecap: square"/>
   </g>
   <g id="Line3DCollection_3">
    <path d="M 352.186814 207.189346 
L 211.052711 166.26796 
L 123.093487 239.813739 
" style="fill: none; stroke: #b0b0b0; stroke-width: 0.8"/>
    <path d="M 353.11712 186.873835 
L 210.826507 146.59667 
L 122.091516 219.007179 
" style="fill: none; stroke: #b0b0b0; stroke-width: 0.8"/>
    <path d="M 354.06295 166.219318 
L 210.596709 126.612868 
L 121.072186 197.840124 
" style="fill: none; stroke: #b0b0b0; stroke-width: 0.8"/>
    <path d="M 355.024697 145.217239 
L 210.363232 106.309047 
L 120.03504 176.303123 
" style="fill: none; stroke: #b0b0b0; stroke-width: 0.8"/>
    <path d="M 356.002764 123.85875 
L 210.125985 85.677459 
L 118.979608 154.386391 
" style="fill: none; stroke: #b0b0b0; stroke-width: 0.8"/>
    <path d="M 356.997571 102.1347 
L 209.884877 64.710103 
L 117.905402 132.079798 
" style="fill: none; stroke: #b0b0b0; stroke-width: 0.8"/>
   </g>
   <g id="xtick_11">
    <g id="line2d_14">
     <path d="M 351.002262 206.845889 
L 354.558736 207.877077 
" style="fill: none; stroke: #000000; stroke-width: 0.8; stroke-linecap: square"/>
    </g>
    <g id="text_13">
     <!-- 0 -->
     <g transform="translate(367.950779 211.463437) scale(0.1 -0.1)">
      <use xlink:href="#SimHei-30"/>
     </g>
    </g>
   </g>
   <g id="xtick_12">
    <g id="line2d_15">
     <path d="M 351.922399 186.535654 
L 355.509429 187.551008 
" style="fill: none; stroke: #000000; stroke-width: 0.8; stroke-linecap: square"/>
    </g>
    <g id="text_14">
     <!-- 5 -->
     <g transform="translate(369.028938 191.187936) scale(0.1 -0.1)">
      <use xlink:href="#SimHei-35"/>
     </g>
    </g>
   </g>
   <g id="xtick_13">
    <g id="line2d_16">
     <path d="M 352.857884 165.886638 
L 356.475999 166.885484 
" style="fill: none; stroke: #000000; stroke-width: 0.8; stroke-linecap: square"/>
    </g>
    <g id="text_15">
     <!-- 10 -->
     <g transform="translate(367.625034 170.575128) scale(0.1 -0.1)">
      <use xlink:href="#SimHei-31"/>
      <use xlink:href="#SimHei-30" x="50"/>
     </g>
    </g>
   </g>
   <g id="xtick_14">
    <g id="line2d_17">
     <path d="M 353.809105 144.890293 
L 357.458847 145.871929 
" style="fill: none; stroke: #000000; stroke-width: 0.8; stroke-linecap: square"/>
    </g>
    <g id="text_16">
     <!-- 15 -->
     <g transform="translate(368.739517 149.616527) scale(0.1 -0.1)">
      <use xlink:href="#SimHei-31"/>
      <use xlink:href="#SimHei-35" x="50"/>
     </g>
    </g>
   </g>
   <g id="xtick_15">
    <g id="line2d_18">
     <path d="M 354.776461 123.537781 
L 358.458387 124.501476 
" style="fill: none; stroke: #000000; stroke-width: 0.8; stroke-linecap: square"/>
    </g>
    <g id="text_17">
     <!-- 20 -->
     <g transform="translate(369.872855 128.303357) scale(0.1 -0.1)">
      <defs>
       <path id="SimHei-32" d="M 300 250 
Q 325 625 650 925 
Q 975 1225 1475 1862 
Q 1975 2500 2125 2850 
Q 2275 3200 2237 3450 
Q 2200 3700 2000 3862 
Q 1800 4025 1537 4000 
Q 1275 3975 1037 3800 
Q 800 3625 675 3275 
L 200 3350 
Q 400 3925 712 4187 
Q 1025 4450 1450 4475 
Q 1700 4500 1900 4462 
Q 2100 4425 2312 4287 
Q 2525 4150 2662 3875 
Q 2800 3600 2762 3212 
Q 2725 2825 2375 2287 
Q 2025 1750 1025 600 
L 2825 600 
L 2825 150 
L 300 150 
L 300 250 
z
" transform="scale(0.015625)"/>
      </defs>
      <use xlink:href="#SimHei-32"/>
      <use xlink:href="#SimHei-30" x="50"/>
     </g>
    </g>
   </g>
   <g id="xtick_16">
    <g id="line2d_19">
     <path d="M 355.760367 101.819963 
L 359.47505 102.764956 
" style="fill: none; stroke: #000000; stroke-width: 0.8; stroke-linecap: square"/>
    </g>
    <g id="text_18">
     <!-- 25 -->
     <g transform="translate(371.02553 106.626543) scale(0.1 -0.1)">
      <use xlink:href="#SimHei-32"/>
      <use xlink:href="#SimHei-35" x="50"/>
     </g>
    </g>
   </g>
  </g>
  <g id="axes_1">
   <g id="line2d_20">
    <path d="M 274.996575 190.767682 
L 281.015432 192.330622 
L 286.667087 194.19655 
L 291.897435 196.347164 
L 296.65486 198.761519 
L 300.890695 201.416066 
L 304.559718 204.284708 
L 307.620673 207.338881 
L 310.036821 210.547676 
L 311.776505 213.877988 
L 312.813725 217.294712 
L 313.128705 220.760992 
L 312.70844 224.238508 
L 311.547211 227.687823 
L 309.647032 231.068783 
L 307.018026 234.340958 
L 303.678706 237.464138 
L 299.656124 240.39886 
L 294.985898 243.10697 
L 289.712078 245.552198 
L 283.886841 247.700741 
L 277.570029 249.521829 
L 270.8285 250.988271 
L 263.735321 252.076948 
L 256.368802 252.76925 
L 248.811399 253.051436 
L 241.148501 252.914905 
L 233.467142 252.356367 
L 225.854668 251.377911 
L 218.397393 249.986961 
L 211.179283 248.196133 
L 204.280709 246.02298 
L 197.777285 243.489655 
L 191.738845 240.622489 
L 186.228552 237.451502 
L 181.302178 234.00987 
L 177.007552 230.333355 
L 173.384181 226.459721 
L 170.46304 222.428148 
L 168.26652 218.278666 
L 166.808525 214.051609 
L 166.094694 209.787113 
L 166.122732 205.524651 
L 166.882826 201.302624 
L 168.358135 197.158002 
L 170.525317 193.126021 
L 173.355092 189.239924 
L 176.812815 185.53076 
L 180.859042 182.027226 
L 185.450094 178.755543 
L 190.538582 175.739373 
L 196.073924 172.999763 
L 202.00281 170.555112 
L 208.26965 168.421157 
L 214.816979 166.610972 
L 221.585833 165.134971 
L 228.516104 164.000926 
L 235.54686 163.213972 
L 242.61666 162.776627 
L 249.663853 162.688792 
L 256.626873 162.947765 
L 263.444538 163.548236 
L 270.056354 164.482291 
L 276.402843 165.739405 
L 282.425886 167.306439 
L 288.069094 169.167648 
L 293.27821 171.30468 
L 298.001548 173.696605 
L 302.19046 176.319945 
L 305.79984 179.148735 
L 308.788661 182.154609 
L 311.120533 185.306916 
L 312.764277 188.572875 
L 313.694514 191.917778 
L 313.892236 195.305227 
L 313.345363 198.697438 
L 312.049251 202.055581 
L 310.007149 205.340178 
L 307.230567 208.511553 
L 303.739539 211.530318 
L 299.562769 214.357902 
L 294.737629 216.957104 
L 289.310004 219.292665 
L 283.333959 221.33184 
L 276.871238 223.044952 
L 269.990588 224.405927 
L 262.766904 225.392769 
L 255.280233 225.987981 
L 247.614632 226.178908 
L 239.856926 225.957984 
L 232.095388 225.322889 
L 224.418375 224.276593 
L 216.912972 222.827298 
L 209.663658 220.988275 
L 202.75105 218.777599 
L 196.250754 216.217799 
L 190.232337 213.335427 
L 184.758461 210.160571 
L 179.884177 206.726317 
L 175.656403 203.068182 
L 172.113564 199.223541 
L 169.285421 195.23105 
L 167.193042 191.130089 
L 165.848932 186.960235 
L 165.257281 182.76077 
L 165.414322 178.570241 
L 166.30877 174.426061 
L 167.922331 170.364172 
L 170.230247 166.418751 
L 173.201873 162.621976 
L 176.801256 159.003832 
L 180.987712 155.591967 
L 185.716391 152.41158 
L 190.938809 149.485349 
L 196.603358 146.83338 
L 202.655775 144.473183 
L 209.039587 142.419659 
L 215.696507 140.685109 
L 222.566814 139.279236 
L 229.589697 138.209162 
L 236.703578 137.47944 
L 243.846423 137.092071 
L 250.956033 137.046505 
L 257.970345 137.339651 
L 264.82773 137.965879 
L 271.467296 138.917014 
L 277.829224 140.182334 
L 283.855107 141.748568 
L 289.488339 143.599897 
L 294.674514 145.71796 
L 299.361881 148.081878 
L 303.501814 150.668287 
L 307.049337 153.451402 
L 309.963661 156.403097 
L 312.208757 159.493032 
L 313.753948 162.688802 
L 314.574494 165.956144 
L 314.652183 169.259178 
L 313.975887 172.560708 
L 312.542074 175.822565 
L 310.355265 179.006008 
L 307.428389 182.072166 
L 303.783047 184.982525 
L 299.449633 187.699456 
L 294.467317 190.186759 
L 288.883856 192.410225 
L 282.75524 194.338204 
L 276.145153 195.942141 
L 269.124254 197.197099 
L 261.769293 198.082219 
L 254.162066 198.581122 
L 246.388243 198.682231 
L 238.536086 198.379003 
L 230.695097 197.670062 
L 222.954635 196.559224 
L 215.40253 195.055428 
L 208.123746 193.172548 
L 201.199118 190.929123 
L 194.704202 188.347993 
L 188.708261 185.455865 
L 183.273413 182.282822 
L 178.453948 178.861784 
L 174.295828 175.227952 
L 170.83636 171.418239 
L 168.104052 167.470702 
L 166.118616 163.424006 
L 164.891127 159.316903 
L 164.4243 155.187766 
L 164.712872 151.074159 
L 165.744069 147.01246 
L 167.49813 143.037536 
L 169.948868 139.182474 
L 173.064262 135.478352 
L 176.807047 131.954067 
L 181.135296 128.6362 
L 186.002984 125.548912 
L 191.360532 122.713889 
L 197.155305 120.150289 
L 203.332089 117.874732 
L 209.833525 115.901291 
L 216.600508 114.241496 
L 223.572559 112.904349 
L 230.688165 111.896338 
L 237.885101 111.221451 
L 245.100737 110.881187 
L 252.272328 110.874569 
L 259.337313 111.198141 
L 266.233611 111.845978 
L 272.899935 112.809675 
L 279.276118 114.078344 
L 285.303473 115.638615 
L 290.92517 117.474634 
L 296.086662 119.568068 
L 300.736133 121.898132 
L 304.824991 124.441622 
L 308.308392 127.172976 
L 311.145799 130.064364 
L 313.301565 133.085803 
L 314.745527 136.20532 
L 315.453612 139.389153 
L 315.408429 142.601997 
L 314.599831 145.807302 
L 313.025436 148.967619 
L 310.691067 152.044999 
L 307.611121 155.001434 
L 303.808802 157.799341 
L 299.316238 160.402081 
L 294.174437 162.774501 
L 288.433072 164.883488 
L 282.150096 166.698518 
L 275.391163 168.192189 
L 268.228878 169.340722 
L 260.741864 170.124404 
L 253.013687 170.527976 
L 245.131635 170.540933 
L 237.185408 170.157734 
L 229.265731 169.377919 
L 221.462946 168.206116 
L 213.86561 166.651949 
L 206.559141 164.729843 
L 199.624557 162.458738 
L 193.137328 159.861718 
L 187.166371 156.965573 
L 181.773218 153.800303 
L 177.011354 150.398588 
L 172.925744 146.795234 
L 169.552537 143.026615 
L 166.918949 139.130119 
L 165.043304 135.143622 
L 163.935215 131.104988 
L 163.595895 127.05162 
L 164.018565 123.020042 
L 165.188942 119.045549 
L 167.08578 115.161893 
L 169.681456 111.401029 
L 172.942565 107.79291 
L 176.830521 104.365317 
L 181.302148 101.143743 
L 186.310251 98.151303 
L 191.804147 95.408676 
L 197.73018 92.934074 
L 204.032182 90.743225 
L 210.65191 88.849375 
L 217.52944 87.263295 
L 224.603534 85.993296 
L 231.81198 85.045245 
L 239.091906 84.422582 
L 246.380081 84.126328 
L 253.613214 84.155097 
L 260.728244 84.505097 
L 267.66264 85.170134 
L 274.354712 86.141604 
L 274.354712 86.141604 
" clip-path="url(#p4b28e928fe)" style="fill: none; stroke: #1f77b4; stroke-width: 1.5; stroke-linecap: square"/>
   </g>
   <g id="text_19">
    <!-- 绘制螺旋线 -->
    <g transform="translate(206.16 35.472) scale(0.12 -0.12)">
     <defs>
      <path id="SimHei-7ed8" d="M 5150 1950 
Q 5425 1950 5800 1975 
L 5800 1500 
Q 5450 1525 5300 1525 
L 4325 1525 
Q 4100 1150 3862 775 
Q 3625 400 3375 100 
Q 3850 100 4950 200 
L 4575 950 
Q 4725 1050 5000 1175 
Q 5225 725 5775 -350 
Q 5525 -475 5300 -600 
Q 5200 -350 5100 -125 
Q 3925 -225 3662 -262 
Q 3400 -300 2875 -450 
Q 2775 -100 2675 125 
Q 3025 275 3300 712 
Q 3575 1150 3775 1525 
L 3375 1525 
Q 3025 1525 2725 1500 
L 2725 1975 
Q 3000 1950 3375 1950 
L 5150 1950 
z
M 1925 4825 
Q 1725 4600 1525 4162 
Q 1325 3725 900 3075 
L 1725 3075 
Q 1950 3550 2050 3900 
Q 2300 3725 2575 3625 
Q 2450 3500 2200 3050 
Q 1950 2600 1737 2275 
Q 1525 1950 1250 1550 
Q 1975 1650 2375 1700 
Q 2325 1525 2350 1250 
Q 2125 1250 1600 1187 
Q 1075 1125 675 1050 
Q 625 1325 500 1550 
Q 825 1700 1050 2012 
Q 1275 2325 1500 2725 
Q 1350 2725 1025 2700 
Q 700 2675 375 2600 
Q 300 2875 225 3125 
Q 550 3275 850 3850 
Q 1150 4425 1325 5075 
Q 1625 4900 1925 4825 
z
M 4475 3075 
Q 4825 3075 5100 3100 
Q 4875 3300 4725 3500 
Q 4375 3975 4125 4425 
Q 3825 3725 3500 3325 
Q 3175 2925 2725 2375 
Q 2450 2625 2300 2725 
Q 2700 3025 2950 3337 
Q 3200 3650 3387 3975 
Q 3575 4300 3700 4612 
Q 3825 4925 3900 5225 
Q 4125 5150 4475 5050 
Q 4400 4925 4375 4800 
Q 4750 4050 5200 3675 
Q 5650 3300 6200 3075 
Q 6000 2875 5825 2575 
Q 5425 2825 5125 3075 
L 5125 2625 
Q 4900 2650 4475 2650 
L 3850 2650 
Q 3625 2650 3350 2625 
L 3350 3100 
Q 3625 3075 3850 3075 
L 4475 3075 
z
M 2425 700 
Q 2375 475 2375 250 
Q 2000 175 1487 62 
Q 975 -50 500 -200 
Q 350 100 275 350 
Q 575 400 812 425 
Q 1050 450 1300 487 
Q 1550 525 1825 562 
Q 2100 600 2425 700 
z
" transform="scale(0.015625)"/>
      <path id="SimHei-5236" d="M 1325 4625 
Q 1175 4375 1075 4150 
L 1800 4150 
Q 1800 4775 1775 5125 
L 2350 5125 
Q 2325 4800 2325 4150 
L 2700 4150 
Q 3200 4150 3600 4175 
L 3600 3725 
Q 3250 3750 2725 3750 
L 2325 3750 
L 2325 3025 
L 2950 3025 
Q 3325 3025 3750 3050 
L 3750 2625 
L 2325 2625 
L 2325 1950 
L 3675 1950 
Q 3650 1650 3637 1125 
Q 3625 600 3612 412 
Q 3600 225 3400 137 
Q 3200 50 2825 -25 
Q 2775 250 2650 550 
Q 2975 550 3050 587 
Q 3125 625 3125 975 
L 3125 1550 
L 2325 1550 
L 2325 175 
Q 2325 -250 2350 -550 
L 1775 -550 
Q 1800 -75 1800 175 
L 1800 1550 
L 1025 1550 
L 1025 -25 
L 500 -25 
Q 525 300 525 650 
L 525 1200 
Q 525 1675 500 1950 
L 1800 1950 
L 1800 2625 
L 1000 2625 
Q 550 2625 225 2600 
L 225 3050 
Q 550 3025 1000 3025 
L 1800 3025 
L 1800 3750 
L 925 3750 
Q 800 3450 675 3250 
Q 450 3400 225 3500 
Q 400 3750 525 4075 
Q 650 4400 750 4800 
Q 1000 4700 1325 4625 
z
M 5875 5075 
Q 5850 4825 5850 4350 
L 5850 25 
Q 5850 -325 5587 -412 
Q 5325 -500 4825 -575 
Q 4750 -250 4625 0 
Q 5050 0 5200 25 
Q 5350 50 5350 350 
L 5350 4350 
Q 5350 4775 5325 5075 
L 5875 5075 
z
M 4675 4325 
Q 4650 3975 4650 3700 
L 4650 1625 
Q 4650 1275 4675 775 
L 4125 775 
Q 4175 1200 4175 1625 
L 4175 3700 
Q 4175 3950 4125 4325 
L 4675 4325 
z
" transform="scale(0.015625)"/>
      <path id="SimHei-87ba" d="M 4575 1025 
L 4575 -25 
Q 4575 -425 4337 -512 
Q 4100 -600 3675 -650 
Q 3625 -375 3500 -100 
Q 3925 -100 4025 -62 
Q 4125 -25 4125 200 
L 4125 1025 
Q 3725 1000 3487 962 
Q 3250 925 3025 850 
Q 2975 1075 2875 1350 
Q 3200 1400 3500 1550 
Q 3800 1700 4175 2000 
Q 3925 2000 3650 1962 
Q 3375 1925 3100 1850 
Q 3000 2150 2925 2325 
Q 3225 2400 3400 2575 
Q 3575 2750 3725 2975 
L 2750 2975 
Q 2800 3375 2800 3700 
L 2800 4300 
Q 2800 4725 2750 5075 
L 5875 5075 
Q 5825 4750 5825 4300 
L 5825 3700 
Q 5825 3350 5875 2975 
L 5075 2975 
Q 5300 2775 5525 2625 
Q 5300 2525 4912 2162 
Q 4525 1800 4025 1400 
L 5275 1450 
Q 5125 1650 5025 1750 
Q 5125 1825 5375 2050 
Q 5750 1625 6175 1075 
Q 5975 900 5750 750 
Q 5625 900 5525 1075 
L 4575 1025 
z
M 1200 4175 
Q 1200 4800 1150 5300 
L 1700 5300 
Q 1625 5000 1650 4175 
L 2425 4175 
Q 2400 3675 2400 3300 
L 2400 2650 
Q 2400 2325 2425 1850 
L 1975 1850 
L 1975 2125 
L 1650 2125 
L 1650 800 
Q 1850 825 2150 875 
Q 2075 1125 2000 1400 
Q 2200 1475 2425 1525 
Q 2575 1000 2750 375 
Q 2475 300 2300 225 
Q 2250 425 2225 575 
Q 1975 500 1425 362 
Q 875 225 375 50 
Q 275 350 200 625 
Q 750 675 1200 725 
L 1200 2125 
L 850 2125 
L 850 1775 
L 375 1775 
Q 400 2325 400 2625 
L 400 3300 
Q 400 3775 375 4175 
L 1200 4175 
z
M 2275 -175 
Q 2600 50 2887 275 
Q 3175 500 3375 725 
Q 3575 550 3750 350 
Q 3475 175 3187 -62 
Q 2900 -300 2600 -550 
Q 2450 -350 2275 -175 
z
M 5175 775 
Q 5325 650 5562 437 
Q 5800 225 6125 -100 
Q 5900 -275 5725 -475 
Q 5450 -100 5225 100 
Q 5000 300 4850 400 
Q 4950 525 5175 775 
z
M 4125 4150 
L 4125 4700 
L 3225 4700 
L 3225 4150 
L 4125 4150 
z
M 4500 2375 
Q 4800 2625 5025 2975 
L 4275 2975 
Q 4050 2675 3675 2325 
L 4500 2375 
z
M 5400 4150 
L 5400 4700 
L 4525 4700 
L 4525 4150 
L 5400 4150 
z
M 1200 2475 
L 1200 3825 
L 850 3825 
L 850 2475 
L 1200 2475 
z
M 1975 2475 
L 1975 3825 
L 1650 3825 
L 1650 2475 
L 1975 2475 
z
M 4125 3325 
L 4125 3800 
L 3225 3800 
L 3225 3325 
L 4125 3325 
z
M 5400 3325 
L 5400 3800 
L 4525 3800 
L 4525 3325 
L 5400 3325 
z
" transform="scale(0.015625)"/>
      <path id="SimHei-65cb" d="M 4225 5050 
Q 4025 4900 3850 4400 
L 5450 4400 
Q 5850 4400 6175 4425 
L 6175 4000 
Q 5875 4025 5450 4025 
L 3700 4025 
Q 3525 3675 3375 3425 
Q 3800 3400 4175 3400 
L 6125 3400 
Q 5825 2650 5750 2325 
Q 5525 2400 5275 2450 
L 5475 3000 
L 4675 3000 
L 4675 1825 
Q 5350 1825 5825 1850 
L 5825 1400 
Q 5375 1425 4675 1425 
L 4675 100 
Q 5300 -25 6150 25 
Q 6025 -200 5925 -550 
Q 5325 -525 4775 -412 
Q 4225 -300 3887 12 
Q 3550 325 3375 625 
Q 3100 -150 2675 -675 
Q 2450 -500 2175 -400 
Q 2500 -100 2700 250 
Q 2900 600 3000 987 
Q 3100 1375 3125 2350 
Q 3375 2300 3675 2275 
Q 3425 1375 3650 937 
Q 3875 500 4225 275 
L 4225 3000 
Q 3800 3000 3350 2975 
L 3350 3350 
Q 3175 2975 3000 2750 
Q 2825 2925 2575 3050 
Q 2925 3550 3175 4075 
Q 3425 4600 3600 5300 
Q 3875 5150 4225 5050 
z
M 2825 3675 
Q 2275 3700 1525 3700 
L 1500 2775 
L 2550 2775 
Q 2500 2325 2500 1925 
L 2425 550 
Q 2325 150 2112 25 
Q 1900 -100 1525 -200 
Q 1475 100 1300 375 
Q 1575 375 1787 412 
Q 2000 450 2025 1225 
L 2075 2400 
L 1475 2400 
Q 1375 1475 1275 1112 
Q 1175 750 1037 412 
Q 900 75 675 -325 
Q 425 -175 200 -75 
Q 475 325 662 787 
Q 850 1250 937 1762 
Q 1025 2275 1050 3700 
Q 700 3700 400 3675 
L 400 4100 
Q 825 4075 1525 4075 
Q 2225 4075 2825 4100 
L 2825 3675 
z
M 1875 5250 
Q 2075 4775 2200 4425 
Q 1925 4375 1700 4250 
Q 1550 4825 1425 5100 
Q 1625 5175 1875 5250 
z
" transform="scale(0.015625)"/>
      <path id="SimHei-7ebf" d="M 3450 4300 
Q 3450 4675 3375 5125 
Q 3700 5100 4050 5050 
Q 3975 4900 3950 4562 
Q 3925 4225 3950 3600 
L 4800 3750 
Q 5225 3850 5650 3975 
L 5750 3500 
Q 5325 3450 4875 3375 
L 3975 3200 
Q 3975 2800 4025 2500 
L 5000 2675 
Q 5500 2775 5950 2925 
L 6025 2450 
Q 5575 2375 5075 2275 
L 4100 2100 
Q 4150 1600 4350 1175 
Q 4575 1350 4787 1575 
Q 5000 1800 5175 2075 
Q 5550 1775 5750 1675 
Q 5425 1525 5237 1337 
Q 5050 1150 4625 750 
Q 4925 250 5162 112 
Q 5400 -25 5500 100 
Q 5600 225 5675 625 
Q 5900 450 6200 350 
Q 5775 -750 5275 -537 
Q 4775 -325 4225 450 
Q 3875 175 3537 -62 
Q 3200 -300 2700 -550 
Q 2575 -300 2325 -100 
Q 2825 75 3175 275 
Q 3525 475 3975 850 
Q 3750 1350 3650 2025 
Q 2900 1900 2600 1800 
L 2525 2275 
Q 2825 2275 3550 2425 
Q 3500 2825 3500 3100 
Q 2825 2950 2575 2875 
L 2475 3350 
Q 2725 3350 3450 3500 
L 3450 4300 
z
M 1950 4875 
Q 1700 4650 1462 4237 
Q 1225 3825 825 3225 
Q 1425 3250 1650 3250 
Q 1875 3625 2050 4075 
Q 2300 3900 2600 3800 
Q 2350 3550 2087 3125 
Q 1825 2700 1175 1675 
Q 1850 1725 2375 1775 
Q 2300 1525 2300 1350 
Q 2125 1350 1525 1287 
Q 925 1225 550 1125 
Q 525 1375 400 1650 
Q 700 1725 950 2050 
Q 1200 2375 1475 2875 
Q 650 2825 425 2675 
Q 350 2950 200 3225 
Q 525 3450 825 3962 
Q 1125 4475 1375 5150 
Q 1625 4975 1950 4875 
z
M 2575 875 
Q 2550 600 2575 450 
Q 1950 325 1450 200 
Q 950 75 525 -75 
Q 450 200 250 475 
Q 950 550 1325 612 
Q 1700 675 2575 875 
z
M 4850 4025 
Q 4675 4300 4375 4675 
L 4775 4875 
Q 4875 4750 5275 4275 
Q 5025 4175 4850 4025 
z
" transform="scale(0.015625)"/>
     </defs>
     <use xlink:href="#SimHei-7ed8"/>
     <use xlink:href="#SimHei-5236" x="100"/>
     <use xlink:href="#SimHei-87ba" x="200"/>
     <use xlink:href="#SimHei-65cb" x="300"/>
     <use xlink:href="#SimHei-7ebf" x="400"/>
    </g>
   </g>
  </g>
 </g>
 <defs>
  <clipPath id="p4b28e928fe">
   <rect x="103.104" y="41.472" width="266.112" height="266.112"/>
  </clipPath>
 </defs>
</svg>
