<?xml version="1.0" encoding="utf-8" standalone="no"?>
<!DOCTYPE svg PUBLIC "-//W3C//DTD SVG 1.1//EN"
  "http://www.w3.org/Graphics/SVG/1.1/DTD/svg11.dtd">
<svg xmlns:xlink="http://www.w3.org/1999/xlink" width="460.8pt" height="345.6pt" viewBox="0 0 460.8 345.6" xmlns="http://www.w3.org/2000/svg" version="1.1">
 <metadata>
  <rdf:RDF xmlns:dc="http://purl.org/dc/elements/1.1/" xmlns:cc="http://creativecommons.org/ns#" xmlns:rdf="http://www.w3.org/1999/02/22-rdf-syntax-ns#">
   <cc:Work>
    <dc:type rdf:resource="http://purl.org/dc/dcmitype/StillImage"/>
    <dc:date>2023-02-17T20:47:05.598712</dc:date>
    <dc:format>image/svg+xml</dc:format>
    <dc:creator>
     <cc:Agent>
      <dc:title>Matplotlib v3.6.2, https://matplotlib.org/</dc:title>
     </cc:Agent>
    </dc:creator>
   </cc:Work>
  </rdf:RDF>
 </metadata>
 <defs>
  <style type="text/css">*{stroke-linejoin: round; stroke-linecap: butt}</style>
 </defs>
 <g id="figure_1">
  <g id="patch_1">
   <path d="M 0 345.6 
L 460.8 345.6 
L 460.8 0 
L 0 0 
z
" style="fill: #ffffff"/>
  </g>
  <g id="axes_1">
   <g id="patch_2">
    <path d="M 57.6 307.584 
L 414.72 307.584 
L 414.72 41.472 
L 57.6 41.472 
z
" style="fill: #ffffff"/>
   </g>
   <g id="matplotlib.axis_1">
    <g id="xtick_1">
     <g id="line2d_1">
      <defs>
       <path id="m719f8b748a" d="M 0 0 
L 0 3.5 
" style="stroke: #000000; stroke-width: 0.8"/>
      </defs>
      <g>
       <use xlink:href="#m719f8b748a" x="73.832727" y="307.584" style="stroke: #000000; stroke-width: 0.8"/>
      </g>
     </g>
     <g id="text_1">
      <!-- 0 -->
      <g transform="translate(71.332727 321.459) scale(0.1 -0.1)">
       <defs>
        <path id="SimHei-30" d="M 225 2537 
Q 250 3200 412 3587 
Q 575 3975 875 4225 
Q 1175 4475 1612 4475 
Q 2050 4475 2375 4112 
Q 2700 3750 2800 3200 
Q 2900 2650 2862 1937 
Q 2825 1225 2612 775 
Q 2400 325 1975 150 
Q 1550 -25 1125 187 
Q 700 400 525 750 
Q 350 1100 275 1487 
Q 200 1875 225 2537 
z
M 750 2687 
Q 675 2000 800 1462 
Q 925 925 1212 700 
Q 1500 475 1800 612 
Q 2100 750 2237 1162 
Q 2375 1575 2375 2062 
Q 2375 2550 2337 2950 
Q 2300 3350 2112 3675 
Q 1925 4000 1612 4012 
Q 1300 4025 1062 3700 
Q 825 3375 750 2687 
z
" transform="scale(0.015625)"/>
       </defs>
       <use xlink:href="#SimHei-30"/>
      </g>
     </g>
    </g>
    <g id="xtick_2">
     <g id="line2d_2">
      <g>
       <use xlink:href="#m719f8b748a" x="142.726562" y="307.584" style="stroke: #000000; stroke-width: 0.8"/>
      </g>
     </g>
     <g id="text_2">
      <!-- 2 -->
      <g transform="translate(140.226562 321.459) scale(0.1 -0.1)">
       <defs>
        <path id="SimHei-32" d="M 300 250 
Q 325 625 650 925 
Q 975 1225 1475 1862 
Q 1975 2500 2125 2850 
Q 2275 3200 2237 3450 
Q 2200 3700 2000 3862 
Q 1800 4025 1537 4000 
Q 1275 3975 1037 3800 
Q 800 3625 675 3275 
L 200 3350 
Q 400 3925 712 4187 
Q 1025 4450 1450 4475 
Q 1700 4500 1900 4462 
Q 2100 4425 2312 4287 
Q 2525 4150 2662 3875 
Q 2800 3600 2762 3212 
Q 2725 2825 2375 2287 
Q 2025 1750 1025 600 
L 2825 600 
L 2825 150 
L 300 150 
L 300 250 
z
" transform="scale(0.015625)"/>
       </defs>
       <use xlink:href="#SimHei-32"/>
      </g>
     </g>
    </g>
    <g id="xtick_3">
     <g id="line2d_3">
      <g>
       <use xlink:href="#m719f8b748a" x="211.620396" y="307.584" style="stroke: #000000; stroke-width: 0.8"/>
      </g>
     </g>
     <g id="text_3">
      <!-- 4 -->
      <g transform="translate(209.120396 321.459) scale(0.1 -0.1)">
       <defs>
        <path id="SimHei-34" d="M 2000 1100 
L 75 1100 
L 75 1525 
L 2100 4450 
L 2475 4450 
L 2475 1525 
L 3075 1525 
L 3075 1100 
L 2475 1100 
L 2475 150 
L 2000 150 
L 2000 1100 
z
M 2000 1525 
L 2000 3500 
L 600 1525 
L 2000 1525 
z
" transform="scale(0.015625)"/>
       </defs>
       <use xlink:href="#SimHei-34"/>
      </g>
     </g>
    </g>
    <g id="xtick_4">
     <g id="line2d_4">
      <g>
       <use xlink:href="#m719f8b748a" x="280.51423" y="307.584" style="stroke: #000000; stroke-width: 0.8"/>
      </g>
     </g>
     <g id="text_4">
      <!-- 6 -->
      <g transform="translate(278.01423 321.459) scale(0.1 -0.1)">
       <defs>
        <path id="SimHei-36" d="M 250 1612 
Q 275 1975 387 2225 
Q 500 2475 725 2850 
L 1750 4450 
L 2325 4450 
L 1275 2800 
Q 1950 2975 2350 2750 
Q 2750 2525 2887 2237 
Q 3025 1950 3037 1612 
Q 3050 1275 2937 950 
Q 2825 625 2537 362 
Q 2250 100 1737 75 
Q 1225 50 862 262 
Q 500 475 362 862 
Q 225 1250 250 1612 
z
M 1025 787 
Q 1250 550 1625 525 
Q 2000 500 2250 775 
Q 2500 1050 2500 1575 
Q 2500 2100 2187 2300 
Q 1875 2500 1487 2450 
Q 1100 2400 925 2075 
Q 750 1750 775 1387 
Q 800 1025 1025 787 
z
" transform="scale(0.015625)"/>
       </defs>
       <use xlink:href="#SimHei-36"/>
      </g>
     </g>
    </g>
    <g id="xtick_5">
     <g id="line2d_5">
      <g>
       <use xlink:href="#m719f8b748a" x="349.408064" y="307.584" style="stroke: #000000; stroke-width: 0.8"/>
      </g>
     </g>
     <g id="text_5">
      <!-- 8 -->
      <g transform="translate(346.908064 321.459) scale(0.1 -0.1)">
       <defs>
        <path id="SimHei-38" d="M 175 1375 
Q 175 1675 325 1962 
Q 475 2250 825 2425 
Q 525 2600 425 2812 
Q 325 3025 312 3300 
Q 300 3575 387 3775 
Q 475 3975 650 4150 
Q 825 4325 1037 4387 
Q 1250 4450 1500 4450 
Q 1750 4450 1950 4400 
Q 2150 4350 2375 4187 
Q 2600 4025 2700 3725 
Q 2800 3425 2687 3025 
Q 2575 2625 2100 2400 
Q 2525 2275 2700 2012 
Q 2875 1750 2875 1375 
Q 2875 1000 2762 775 
Q 2650 550 2512 400 
Q 2375 250 2137 162 
Q 1900 75 1537 75 
Q 1175 75 912 162 
Q 650 250 475 425 
Q 300 600 237 837 
Q 175 1075 175 1375 
z
M 687 1400 
Q 675 1100 787 875 
Q 900 650 1200 587 
Q 1500 525 1825 600 
Q 2150 675 2275 950 
Q 2400 1225 2362 1500 
Q 2325 1775 2050 1962 
Q 1775 2150 1450 2125 
Q 1125 2100 912 1900 
Q 700 1700 687 1400 
z
M 775 3350 
Q 775 3100 950 2875 
Q 1125 2650 1500 2650 
Q 1875 2650 2062 2875 
Q 2250 3100 2237 3412 
Q 2225 3725 2012 3875 
Q 1800 4025 1437 4000 
Q 1075 3975 925 3787 
Q 775 3600 775 3350 
z
" transform="scale(0.015625)"/>
       </defs>
       <use xlink:href="#SimHei-38"/>
      </g>
     </g>
    </g>
    <g id="text_6">
     <!-- time -->
     <g transform="translate(226.16 333.584) scale(0.1 -0.1)">
      <defs>
       <path id="SimHei-74" d="M 2750 200 
Q 2625 150 2462 112 
Q 2300 75 2025 75 
Q 1575 75 1300 325 
Q 1025 575 1025 1025 
L 1025 2525 
L 175 2525 
L 175 2925 
L 1025 2925 
L 1025 3900 
L 1525 3900 
L 1525 2925 
L 2550 2925 
L 2550 2525 
L 1525 2525 
L 1525 1000 
Q 1525 800 1625 662 
Q 1725 525 2000 525 
Q 2275 525 2450 575 
Q 2625 625 2750 700 
L 2750 200 
z
" transform="scale(0.015625)"/>
       <path id="SimHei-69" d="M 1800 3725 
L 1300 3725 
L 1300 4375 
L 1800 4375 
L 1800 3725 
z
M 1800 125 
L 1300 125 
L 1300 2925 
L 1800 2925 
L 1800 125 
z
" transform="scale(0.015625)"/>
       <path id="SimHei-6d" d="M 3050 125 
L 2550 125 
L 2550 2150 
Q 2550 2300 2500 2400 
Q 2450 2500 2300 2500 
Q 2125 2500 1975 2312 
Q 1825 2125 1825 1825 
L 1825 125 
L 1325 125 
L 1325 2150 
Q 1325 2300 1275 2400 
Q 1225 2500 1075 2500 
Q 900 2500 750 2312 
Q 600 2125 600 1825 
L 600 125 
L 100 125 
L 100 2925 
L 600 2925 
L 600 2550 
Q 725 2750 900 2862 
Q 1075 2975 1275 2975 
Q 1475 2975 1612 2862 
Q 1750 2750 1800 2550 
Q 1925 2750 2087 2862 
Q 2250 2975 2450 2975 
Q 2750 2975 2900 2812 
Q 3050 2650 3050 2350 
L 3050 125 
z
" transform="scale(0.015625)"/>
       <path id="SimHei-65" d="M 2850 1075 
Q 2800 625 2450 350 
Q 2100 75 1625 75 
Q 1025 75 637 462 
Q 250 850 250 1525 
Q 250 2200 637 2587 
Q 1025 2975 1625 2975 
Q 2150 2975 2487 2637 
Q 2825 2300 2825 1525 
L 800 1525 
Q 800 975 1037 750 
Q 1275 525 1625 525 
Q 1900 525 2075 662 
Q 2250 800 2300 1075 
L 2850 1075 
z
M 2250 1925 
Q 2200 2275 2025 2412 
Q 1850 2550 1575 2550 
Q 1325 2550 1125 2412 
Q 925 2275 825 1925 
L 2250 1925 
z
" transform="scale(0.015625)"/>
      </defs>
      <use xlink:href="#SimHei-74"/>
      <use xlink:href="#SimHei-69" x="50"/>
      <use xlink:href="#SimHei-6d" x="100"/>
      <use xlink:href="#SimHei-65" x="150"/>
     </g>
    </g>
   </g>
   <g id="matplotlib.axis_2">
    <g id="ytick_1">
     <g id="line2d_6">
      <defs>
       <path id="m04e70fc81c" d="M 0 0 
L -3.5 0 
" style="stroke: #000000; stroke-width: 0.8"/>
      </defs>
      <g>
       <use xlink:href="#m04e70fc81c" x="57.6" y="295.493394" style="stroke: #000000; stroke-width: 0.8"/>
      </g>
     </g>
     <g id="text_7">
      <!-- -2.0 -->
      <g transform="translate(30.6 298.930894) scale(0.1 -0.1)">
       <defs>
        <path id="SimHei-2d" d="M 2975 2125 
L 125 2125 
L 125 2525 
L 2975 2525 
L 2975 2125 
z
" transform="scale(0.015625)"/>
        <path id="SimHei-2e" d="M 1075 125 
L 500 125 
L 500 675 
L 1075 675 
L 1075 125 
z
" transform="scale(0.015625)"/>
       </defs>
       <use xlink:href="#SimHei-2d"/>
       <use xlink:href="#SimHei-32" x="50"/>
       <use xlink:href="#SimHei-2e" x="100"/>
       <use xlink:href="#SimHei-30" x="150"/>
      </g>
     </g>
    </g>
    <g id="ytick_2">
     <g id="line2d_7">
      <g>
       <use xlink:href="#m04e70fc81c" x="57.6" y="265.252645" style="stroke: #000000; stroke-width: 0.8"/>
      </g>
     </g>
     <g id="text_8">
      <!-- -1.5 -->
      <g transform="translate(30.6 268.690145) scale(0.1 -0.1)">
       <defs>
        <path id="SimHei-31" d="M 1400 3600 
Q 1075 3275 575 2975 
L 575 3450 
Q 1200 3875 1600 4450 
L 1900 4450 
L 1900 150 
L 1400 150 
L 1400 3600 
z
" transform="scale(0.015625)"/>
        <path id="SimHei-35" d="M 550 1325 
Q 725 650 1150 575 
Q 1575 500 1837 662 
Q 2100 825 2212 1087 
Q 2325 1350 2312 1675 
Q 2300 2000 2137 2225 
Q 1975 2450 1725 2525 
Q 1475 2600 1162 2525 
Q 850 2450 650 2175 
L 225 2225 
Q 275 2375 700 4375 
L 2675 4375 
L 2675 3925 
L 1075 3925 
Q 950 3250 825 2850 
Q 1200 3025 1525 3012 
Q 1850 3000 2150 2862 
Q 2450 2725 2587 2487 
Q 2725 2250 2787 2012 
Q 2850 1775 2837 1500 
Q 2825 1225 2725 937 
Q 2625 650 2425 462 
Q 2225 275 1937 162 
Q 1650 50 1275 75 
Q 900 100 562 350 
Q 225 600 100 1200 
L 550 1325 
z
" transform="scale(0.015625)"/>
       </defs>
       <use xlink:href="#SimHei-2d"/>
       <use xlink:href="#SimHei-31" x="50"/>
       <use xlink:href="#SimHei-2e" x="100"/>
       <use xlink:href="#SimHei-35" x="150"/>
      </g>
     </g>
    </g>
    <g id="ytick_3">
     <g id="line2d_8">
      <g>
       <use xlink:href="#m04e70fc81c" x="57.6" y="235.011896" style="stroke: #000000; stroke-width: 0.8"/>
      </g>
     </g>
     <g id="text_9">
      <!-- -1.0 -->
      <g transform="translate(30.6 238.449396) scale(0.1 -0.1)">
       <use xlink:href="#SimHei-2d"/>
       <use xlink:href="#SimHei-31" x="50"/>
       <use xlink:href="#SimHei-2e" x="100"/>
       <use xlink:href="#SimHei-30" x="150"/>
      </g>
     </g>
    </g>
    <g id="ytick_4">
     <g id="line2d_9">
      <g>
       <use xlink:href="#m04e70fc81c" x="57.6" y="204.771146" style="stroke: #000000; stroke-width: 0.8"/>
      </g>
     </g>
     <g id="text_10">
      <!-- -0.5 -->
      <g transform="translate(30.6 208.208646) scale(0.1 -0.1)">
       <use xlink:href="#SimHei-2d"/>
       <use xlink:href="#SimHei-30" x="50"/>
       <use xlink:href="#SimHei-2e" x="100"/>
       <use xlink:href="#SimHei-35" x="150"/>
      </g>
     </g>
    </g>
    <g id="ytick_5">
     <g id="line2d_10">
      <g>
       <use xlink:href="#m04e70fc81c" x="57.6" y="174.530397" style="stroke: #000000; stroke-width: 0.8"/>
      </g>
     </g>
     <g id="text_11">
      <!-- 0.0 -->
      <g transform="translate(35.6 177.967897) scale(0.1 -0.1)">
       <use xlink:href="#SimHei-30"/>
       <use xlink:href="#SimHei-2e" x="50"/>
       <use xlink:href="#SimHei-30" x="100"/>
      </g>
     </g>
    </g>
    <g id="ytick_6">
     <g id="line2d_11">
      <g>
       <use xlink:href="#m04e70fc81c" x="57.6" y="144.289648" style="stroke: #000000; stroke-width: 0.8"/>
      </g>
     </g>
     <g id="text_12">
      <!-- 0.5 -->
      <g transform="translate(35.6 147.727148) scale(0.1 -0.1)">
       <use xlink:href="#SimHei-30"/>
       <use xlink:href="#SimHei-2e" x="50"/>
       <use xlink:href="#SimHei-35" x="100"/>
      </g>
     </g>
    </g>
    <g id="ytick_7">
     <g id="line2d_12">
      <g>
       <use xlink:href="#m04e70fc81c" x="57.6" y="114.048899" style="stroke: #000000; stroke-width: 0.8"/>
      </g>
     </g>
     <g id="text_13">
      <!-- 1.0 -->
      <g transform="translate(35.6 117.486399) scale(0.1 -0.1)">
       <use xlink:href="#SimHei-31"/>
       <use xlink:href="#SimHei-2e" x="50"/>
       <use xlink:href="#SimHei-30" x="100"/>
      </g>
     </g>
    </g>
    <g id="ytick_8">
     <g id="line2d_13">
      <g>
       <use xlink:href="#m04e70fc81c" x="57.6" y="83.80815" style="stroke: #000000; stroke-width: 0.8"/>
      </g>
     </g>
     <g id="text_14">
      <!-- 1.5 -->
      <g transform="translate(35.6 87.24565) scale(0.1 -0.1)">
       <use xlink:href="#SimHei-31"/>
       <use xlink:href="#SimHei-2e" x="50"/>
       <use xlink:href="#SimHei-35" x="100"/>
      </g>
     </g>
    </g>
    <g id="ytick_9">
     <g id="line2d_14">
      <g>
       <use xlink:href="#m04e70fc81c" x="57.6" y="53.567401" style="stroke: #000000; stroke-width: 0.8"/>
      </g>
     </g>
     <g id="text_15">
      <!-- 2.0 -->
      <g transform="translate(35.6 57.004901) scale(0.1 -0.1)">
       <use xlink:href="#SimHei-32"/>
       <use xlink:href="#SimHei-2e" x="50"/>
       <use xlink:href="#SimHei-30" x="100"/>
      </g>
     </g>
    </g>
    <g id="text_16">
     <!-- 振幅 -->
     <g transform="translate(25.35 184.528) rotate(-90) scale(0.1 -0.1)">
      <defs>
       <path id="SimHei-632f" d="M 3275 -200 
Q 3400 -100 3437 37 
Q 3475 175 3475 500 
L 3475 2300 
L 3025 2300 
Q 3000 1800 2950 1375 
Q 2900 950 2800 600 
Q 2700 250 2575 -37 
Q 2450 -325 2325 -625 
Q 2175 -475 1825 -350 
Q 2150 -25 2300 412 
Q 2450 850 2500 1350 
Q 2550 1850 2562 2437 
Q 2575 3025 2575 3625 
Q 2575 4250 2525 4825 
L 5150 4825 
Q 5475 4825 5825 4850 
L 5825 4375 
Q 5400 4400 5225 4400 
L 3025 4400 
L 3025 2700 
L 5375 2700 
Q 5600 2700 5975 2725 
L 5975 2275 
Q 5850 2300 5475 2300 
L 4675 2300 
Q 4775 1600 4925 1275 
Q 5125 1450 5262 1587 
Q 5400 1725 5550 1975 
Q 5650 1775 5900 1575 
Q 5750 1500 5575 1337 
Q 5400 1175 5125 875 
Q 5225 650 5500 362 
Q 5775 75 6175 -75 
Q 5875 -250 5775 -525 
Q 5300 -175 5075 100 
Q 4850 375 4687 687 
Q 4525 1000 4412 1387 
Q 4300 1775 4250 2300 
L 3950 2300 
L 3950 150 
Q 4250 300 4575 475 
Q 4625 325 4750 50 
Q 4575 -25 4237 -212 
Q 3900 -400 3600 -650 
Q 3500 -450 3275 -200 
z
M 250 2000 
Q 550 2075 725 2125 
L 1150 2275 
L 1150 3350 
Q 675 3350 325 3325 
L 325 3800 
Q 650 3775 1150 3775 
L 1150 4500 
Q 1150 4850 1125 5150 
L 1675 5150 
Q 1650 4875 1650 4500 
L 1650 3775 
Q 1875 3775 2300 3800 
L 2300 3325 
Q 1900 3350 1650 3350 
L 1650 2425 
Q 2000 2550 2250 2675 
Q 2250 2475 2275 2250 
Q 2100 2200 1650 2000 
L 1650 100 
Q 1600 -250 1450 -362 
Q 1300 -475 725 -525 
Q 700 -325 600 25 
Q 850 0 1000 0 
Q 1150 0 1150 300 
L 1150 1800 
Q 975 1725 850 1662 
Q 725 1600 475 1450 
Q 425 1675 250 2000 
z
M 4950 3775 
Q 5275 3775 5600 3800 
L 5600 3325 
Q 5275 3350 5000 3350 
L 4000 3350 
Q 3725 3350 3375 3325 
L 3375 3800 
Q 3700 3775 4000 3775 
L 4950 3775 
z
" transform="scale(0.015625)"/>
       <path id="SimHei-5e45" d="M 5950 2250 
Q 5925 1875 5925 900 
Q 5925 -50 5950 -425 
L 5450 -425 
L 5450 -175 
L 3350 -175 
L 3350 -475 
L 2875 -475 
Q 2900 200 2900 1025 
Q 2900 1875 2875 2250 
L 5950 2250 
z
M 2575 1125 
Q 2575 800 2437 700 
Q 2300 600 1950 525 
Q 1900 800 1750 1000 
Q 1975 1000 2075 1037 
Q 2175 1075 2175 1300 
L 2175 3725 
L 1700 3725 
L 1700 475 
Q 1700 0 1725 -550 
L 1225 -550 
Q 1250 -25 1250 475 
L 1250 3725 
L 850 3725 
L 850 500 
L 400 500 
Q 425 1000 425 2300 
Q 425 3600 400 4100 
L 1250 4100 
L 1250 4500 
Q 1250 4825 1225 5175 
L 1725 5175 
Q 1700 4825 1700 4500 
L 1700 4100 
L 2600 4100 
Q 2575 3900 2575 3225 
L 2575 1125 
z
M 5575 3925 
Q 5550 3625 5550 3300 
Q 5550 2975 5575 2600 
L 3200 2600 
Q 3225 2975 3225 3300 
Q 3225 3625 3200 3925 
L 5575 3925 
z
M 5250 4800 
Q 5650 4800 6025 4825 
L 6025 4375 
Q 5650 4400 5250 4400 
L 3550 4400 
Q 3075 4400 2800 4375 
L 2800 4825 
Q 3075 4800 3550 4800 
L 5250 4800 
z
M 5150 2975 
L 5150 3575 
L 3625 3575 
L 3625 2975 
L 5150 2975 
z
M 5450 1225 
L 5450 1875 
L 4625 1875 
L 4625 1225 
L 5450 1225 
z
M 4175 200 
L 4175 850 
L 3350 850 
L 3350 200 
L 4175 200 
z
M 5450 200 
L 5450 850 
L 4625 850 
L 4625 200 
L 5450 200 
z
M 4175 1225 
L 4175 1875 
L 3350 1875 
L 3350 1225 
L 4175 1225 
z
" transform="scale(0.015625)"/>
      </defs>
      <use xlink:href="#SimHei-632f"/>
      <use xlink:href="#SimHei-5e45" x="100"/>
     </g>
    </g>
   </g>
   <g id="line2d_15">
    <path d="M 73.832727 174.530397 
L 82.941272 142.916475 
L 88.146154 125.701639 
L 92.049816 113.500128 
L 95.953478 102.081549 
L 99.206529 93.270167 
L 102.459581 85.182948 
L 105.062022 79.283235 
L 107.664463 73.926906 
L 110.266905 69.144518 
L 112.218736 65.950916 
L 114.170567 63.105825 
L 116.122398 60.618376 
L 118.074228 58.496552 
L 120.026059 56.747165 
L 121.97789 55.37583 
L 123.279111 54.673859 
L 124.580332 54.142894 
L 125.881552 53.783692 
L 127.182773 53.596766 
L 128.483993 53.582383 
L 129.785214 53.740564 
L 131.086435 54.071082 
L 132.387655 54.573466 
L 133.688876 55.246999 
L 135.640707 56.576034 
L 137.592538 58.283671 
L 139.544369 60.364427 
L 141.4962 62.811624 
L 143.448031 65.617408 
L 145.399862 68.772772 
L 148.002303 73.506053 
L 150.604744 78.815677 
L 153.207185 84.671352 
L 155.809627 91.039672 
L 159.062678 99.665367 
L 162.31573 108.958234 
L 166.219392 120.873363 
L 170.773664 135.633093 
L 175.978546 153.317096 
L 195.496856 220.556958 
L 199.400517 232.911513 
L 203.304179 244.51712 
L 206.557231 253.508601 
L 209.810282 261.796256 
L 212.412724 267.869765 
L 215.015165 273.410774 
L 217.617606 278.387672 
L 219.569437 281.732942 
L 221.521268 284.734121 
L 223.473099 287.381577 
L 225.42493 289.666812 
L 227.376761 291.582491 
L 229.328592 293.122465 
L 231.280423 294.281792 
L 232.581643 294.841317 
L 233.882864 295.229189 
L 235.184085 295.444852 
L 236.485305 295.488 
L 237.786526 295.358571 
L 239.087746 295.05675 
L 240.388967 294.582967 
L 241.690188 293.937899 
L 243.642019 292.651216 
L 245.59385 290.985397 
L 247.54568 288.945791 
L 249.497511 286.538943 
L 251.449342 283.772578 
L 253.401173 280.655576 
L 255.353004 277.197942 
L 257.955445 272.077226 
L 260.557887 266.400006 
L 263.160328 260.198672 
L 266.413379 251.764133 
L 269.666431 242.641313 
L 273.570093 230.900259 
L 277.473755 218.436058 
L 282.678637 200.96968 
L 290.485961 173.768846 
L 299.594505 142.18202 
L 304.799388 125.005859 
L 308.70305 112.843822 
L 311.956101 103.306966 
L 315.209153 94.404828 
L 318.462204 86.216742 
L 321.064646 80.229657 
L 323.667087 74.780556 
L 326.269528 69.900526 
L 328.221359 66.630831 
L 330.17319 63.707464 
L 332.125021 61.139808 
L 334.076852 58.936104 
L 336.028683 57.103426 
L 337.980514 55.647655 
L 339.932345 54.573466 
L 341.233565 54.071082 
L 342.534786 53.740564 
L 343.836007 53.582383 
L 345.137227 53.596766 
L 346.438448 53.783692 
L 347.739668 54.142894 
L 349.040889 54.673859 
L 350.34211 55.37583 
L 352.293941 56.747165 
L 354.245772 58.496552 
L 356.197602 60.618376 
L 358.149433 63.105825 
L 360.101264 65.950916 
L 362.053095 69.144518 
L 364.655537 73.926906 
L 367.257978 79.283235 
L 369.860419 85.182948 
L 372.46286 91.592386 
L 375.715912 100.265021 
L 378.968963 109.599484 
L 382.872625 121.556954 
L 387.426897 136.354967 
L 392.63178 154.067265 
L 398.487273 174.530397 
L 398.487273 174.530397 
" clip-path="url(#p39830d2c55)" style="fill: none; stroke: #ff0000; stroke-width: 2; stroke-linecap: square"/>
   </g>
   <g id="line2d_16">
    <path d="M 73.832727 114.048899 
L 82.290661 114.158778 
L 85.543713 114.452434 
L 88.146154 114.948161 
L 90.097985 115.545945 
L 92.049816 116.398934 
L 94.001647 117.568262 
L 95.953478 119.119123 
L 97.254698 120.398339 
L 98.555919 121.897363 
L 99.85714 123.636111 
L 101.15836 125.633824 
L 103.110191 129.155137 
L 105.062022 133.353121 
L 107.013853 138.268734 
L 108.965684 143.925349 
L 110.917515 150.323407 
L 112.869346 157.434828 
L 115.471787 167.913379 
L 118.724839 182.226982 
L 125.230942 211.400281 
L 127.182773 219.074331 
L 128.483993 223.596459 
L 129.785214 227.514604 
L 131.086435 230.718359 
L 132.387655 233.10058 
L 133.038266 233.951843 
L 133.688876 234.560735 
L 134.339486 234.916326 
L 134.990097 235.008571 
L 135.640707 234.828442 
L 136.291317 234.368053 
L 136.941927 233.62079 
L 137.592538 232.581442 
L 138.243148 231.246328 
L 139.544369 227.682456 
L 140.845589 222.93489 
L 142.14681 217.041141 
L 143.448031 210.0734 
L 145.399862 197.856681 
L 147.351692 184.004209 
L 153.207185 140.519925 
L 154.508406 132.309545 
L 155.809627 125.295967 
L 157.110847 119.771091 
L 157.761457 117.650075 
L 158.412068 115.99594 
L 159.062678 114.834185 
L 159.713288 114.186631 
L 160.363899 114.070999 
L 161.014509 114.500516 
L 161.665119 115.483543 
L 162.31573 117.023234 
L 162.96634 119.11724 
L 163.61695 121.757456 
L 164.918171 128.614185 
L 166.219392 137.407449 
L 167.520612 147.853186 
L 169.472443 165.768782 
L 173.376105 203.353604 
L 174.677326 214.250978 
L 175.978546 223.340137 
L 176.629156 227.037258 
L 177.279767 230.089134 
L 177.930377 232.443741 
L 178.580987 234.056842 
L 179.231598 234.892963 
L 179.882208 234.92628 
L 180.532818 234.141412 
L 181.183429 232.534098 
L 181.834039 230.111732 
L 182.484649 226.893746 
L 183.13526 222.911825 
L 184.43648 212.844145 
L 185.737701 200.403256 
L 187.689532 178.801644 
L 190.291973 149.072931 
L 191.593194 135.971142 
L 192.894414 125.298696 
L 193.545025 121.133658 
L 194.195635 117.867437 
L 194.846245 115.571987 
L 195.496856 114.303762 
L 196.147466 114.102081 
L 196.798076 114.987744 
L 197.448686 116.961945 
L 198.099297 120.005518 
L 198.749907 124.078553 
L 199.400517 129.12041 
L 200.701738 141.767433 
L 202.002959 157.074319 
L 206.557231 213.888239 
L 207.858451 225.459108 
L 208.509062 229.696392 
L 209.159672 232.750106 
L 209.810282 234.535575 
L 210.460893 234.994644 
L 211.111503 234.097912 
L 211.762113 231.846383 
L 212.412724 228.272463 
L 213.063334 223.440229 
L 213.713944 217.444954 
L 215.015165 202.4939 
L 216.966996 175.314625 
L 218.918827 147.618579 
L 220.220047 131.962327 
L 220.870658 125.629422 
L 221.521268 120.540092 
L 222.171878 116.844634 
L 222.822489 114.659466 
L 223.473099 114.062913 
L 224.123709 115.091879 
L 224.77432 117.739558 
L 225.42493 121.954288 
L 226.07554 127.639641 
L 227.376761 142.822249 
L 228.677981 161.705605 
L 231.280423 201.989402 
L 232.581643 218.668574 
L 233.232254 225.17537 
L 233.882864 230.161896 
L 234.533474 233.455786 
L 235.184085 234.934027 
L 235.834695 234.528269 
L 236.485305 232.228567 
L 237.135915 228.085359 
L 237.786526 222.209526 
L 238.437136 214.770468 
L 239.738357 196.147186 
L 243.642019 133.795596 
L 244.292629 126.20986 
L 244.943239 120.282125 
L 245.59385 116.240083 
L 246.24446 114.248616 
L 246.89507 114.402169 
L 247.54568 116.719439 
L 248.196291 121.140685 
L 248.846901 127.527857 
L 249.497511 135.667668 
L 250.798732 156.014788 
L 254.051784 211.998184 
L 254.702394 220.604956 
L 255.353004 227.4325 
L 256.003615 232.191295 
L 256.654225 234.669368 
L 257.304835 234.742823 
L 257.955445 232.383098 
L 258.606056 227.660523 
L 259.256666 220.743875 
L 259.907276 211.895797 
L 261.208497 189.869251 
L 263.810938 141.831377 
L 264.461549 131.999673 
L 265.112159 123.989779 
L 265.762769 118.172274 
L 266.413379 114.826825 
L 267.06399 114.127479 
L 267.7146 116.132304 
L 268.36521 120.777998 
L 269.015821 127.879915 
L 269.666431 137.137708 
L 270.967652 160.41342 
L 273.570093 210.398936 
L 274.220703 220.137445 
L 274.871314 227.71016 
L 275.521924 232.728703 
L 276.172534 234.923358 
L 276.823144 234.159089 
L 277.473755 230.445295 
L 278.124365 223.9386 
L 278.774975 214.938278 
L 280.076196 191.288291 
L 282.678637 138.91613 
L 283.329248 128.734107 
L 283.979858 120.931076 
L 284.630468 115.942485 
L 285.281079 114.060248 
L 285.931689 115.413912 
L 286.582299 119.960119 
L 287.232909 127.481244 
L 287.88352 137.593582 
L 289.18474 163.341135 
L 291.136571 204.87611 
L 291.787182 216.383648 
L 292.437792 225.541907 
L 293.088402 231.805198 
L 293.739013 234.786818 
L 294.389623 234.284869 
L 295.040233 230.297921 
L 295.690844 223.029245 
L 296.341454 212.879007 
L 297.642674 186.389143 
L 299.594505 143.323064 
L 300.245116 131.563708 
L 300.895726 122.410039 
L 301.546336 116.449973 
L 302.196947 114.081133 
L 302.847557 115.482111 
L 303.498167 120.596825 
L 304.148778 129.133397 
L 304.799388 140.578072 
L 306.100608 169.211786 
L 307.401829 199.346209 
L 308.052439 212.526747 
L 308.70305 223.246878 
L 309.35366 230.777845 
L 310.00427 234.592956 
L 310.654881 234.406779 
L 311.305491 230.199038 
L 311.956101 222.221087 
L 312.606712 210.984021 
L 313.907932 181.878934 
L 315.209153 150.635044 
L 315.859763 136.914801 
L 316.510373 125.796136 
L 317.160984 118.083892 
L 317.811594 114.351958 
L 318.462204 114.897939 
L 319.112815 119.716618 
L 319.763425 128.494688 
L 320.414035 140.627766 
L 321.715256 171.337681 
L 323.016477 203.115754 
L 323.667087 216.454686 
L 324.317697 226.696378 
L 324.968308 233.047803 
L 325.618918 234.999546 
L 326.269528 232.369686 
L 326.920138 225.323621 
L 327.570749 214.367633 
L 328.871969 184.233047 
L 330.8238 136.44727 
L 331.474411 124.870359 
L 332.125021 117.207556 
L 332.775631 114.099751 
L 333.426242 115.830257 
L 334.076852 122.295645 
L 334.727462 133.007355 
L 336.028683 163.518161 
L 337.980514 212.687079 
L 338.631124 224.513255 
L 339.281734 232.177677 
L 339.932345 235.004251 
L 340.582955 232.718513 
L 341.233565 225.477874 
L 341.884176 213.865516 
L 343.185396 181.695485 
L 344.486617 146.95449 
L 345.137227 132.401713 
L 345.787837 121.520915 
L 346.438448 115.300063 
L 347.089058 114.324727 
L 347.739668 118.719028 
L 348.390279 128.126818 
L 349.040889 141.735844 
L 350.34211 176.461474 
L 351.64333 210.640157 
L 352.293941 223.543702 
L 352.944551 231.936466 
L 353.595161 235.006106 
L 354.245772 232.428873 
L 354.896382 224.408 
L 355.546992 211.663034 
L 356.848213 177.055977 
L 358.149433 141.366409 
L 358.800044 127.436565 
L 359.450654 118.042565 
L 360.101264 114.130234 
L 360.751875 116.119374 
L 361.402485 123.854102 
L 362.053095 136.609152 
L 363.354316 171.862358 
L 364.655537 208.29449 
L 365.306147 222.338446 
L 365.956757 231.564663 
L 366.607367 235.001488 
L 367.257978 232.259166 
L 367.908588 223.578959 
L 368.559198 209.817969 
L 369.860419 173.02692 
L 371.16164 136.710234 
L 371.81225 123.573413 
L 372.46286 115.80732 
L 373.113471 114.272995 
L 373.764081 119.174496 
L 374.414691 130.027028 
L 375.065302 145.698846 
L 377.667743 219.167428 
L 378.318353 230.06869 
L 378.968963 234.851465 
L 379.619574 232.946044 
L 380.270184 224.522862 
L 380.920794 210.484349 
L 382.222015 172.212157 
L 383.523236 134.826161 
L 384.173846 121.884942 
L 384.824456 114.962418 
L 385.475066 114.894021 
L 386.125677 121.729935 
L 386.776287 134.717844 
L 388.077508 172.672262 
L 389.378728 211.60806 
L 390.029339 225.628379 
L 390.679949 233.588173 
L 391.330559 234.498352 
L 391.98117 228.206945 
L 392.63178 215.429365 
L 393.933001 177.07006 
L 395.234221 137.37793 
L 395.884831 123.175589 
L 396.535442 115.290786 
L 397.186052 114.739264 
L 397.836662 121.633224 
L 398.487273 135.154649 
L 398.487273 135.154649 
" clip-path="url(#p39830d2c55)" style="fill: none; stroke-dasharray: 7.4,3.2; stroke-dashoffset: 0; stroke: #0000ff; stroke-width: 2"/>
   </g>
   <g id="patch_3">
    <path d="M 57.6 307.584 
L 57.6 41.472 
" style="fill: none; stroke: #000000; stroke-width: 0.8; stroke-linejoin: miter; stroke-linecap: square"/>
   </g>
   <g id="patch_4">
    <path d="M 414.72 307.584 
L 414.72 41.472 
" style="fill: none; stroke: #000000; stroke-width: 0.8; stroke-linejoin: miter; stroke-linecap: square"/>
   </g>
   <g id="patch_5">
    <path d="M 57.6 307.584 
L 414.72 307.584 
" style="fill: none; stroke: #000000; stroke-width: 0.8; stroke-linejoin: miter; stroke-linecap: square"/>
   </g>
   <g id="patch_6">
    <path d="M 57.6 41.472 
L 414.72 41.472 
" style="fill: none; stroke: #000000; stroke-width: 0.8; stroke-linejoin: miter; stroke-linecap: square"/>
   </g>
   <g id="legend_1">
    <g id="patch_7">
     <path d="M 320.72 77.831375 
L 407.72 77.831375 
Q 409.72 77.831375 409.72 75.831375 
L 409.72 48.472 
Q 409.72 46.472 407.72 46.472 
L 320.72 46.472 
Q 318.72 46.472 318.72 48.472 
L 318.72 75.831375 
Q 318.72 77.831375 320.72 77.831375 
z
" style="fill: #ffffff; opacity: 0.8; stroke: #cccccc; stroke-linejoin: miter"/>
    </g>
    <g id="line2d_17">
     <path d="M 322.72 54.7845 
L 332.72 54.7845 
L 342.72 54.7845 
" style="fill: none; stroke: #ff0000; stroke-width: 2; stroke-linecap: square"/>
    </g>
    <g id="text_17">
     <!-- y=2sin(x) -->
     <g transform="translate(350.72 58.2845) scale(0.1 -0.1)">
      <defs>
       <path id="SimHei-79" d="M 2900 2925 
L 1750 -100 
Q 1650 -450 1450 -625 
Q 1250 -800 950 -800 
Q 825 -800 712 -787 
Q 600 -775 500 -725 
L 500 -225 
Q 600 -275 700 -300 
Q 800 -325 875 -325 
Q 1075 -325 1150 -262 
Q 1225 -200 1300 25 
L 200 2925 
L 750 2925 
L 1550 725 
L 1575 725 
L 2350 2925 
L 2900 2925 
z
" transform="scale(0.015625)"/>
       <path id="SimHei-3d" d="M 2975 2900 
L 125 2900 
L 125 3300 
L 2975 3300 
L 2975 2900 
z
M 2975 1375 
L 125 1375 
L 125 1775 
L 2975 1775 
L 2975 1375 
z
" transform="scale(0.015625)"/>
       <path id="SimHei-73" d="M 2750 900 
Q 2750 500 2437 287 
Q 2125 75 1650 75 
Q 1050 75 725 312 
Q 400 550 400 1000 
L 900 1000 
Q 900 700 1112 600 
Q 1325 500 1625 500 
Q 1925 500 2075 612 
Q 2225 725 2225 900 
Q 2225 1025 2100 1150 
Q 1975 1275 1475 1350 
Q 900 1425 687 1637 
Q 475 1850 475 2200 
Q 475 2500 762 2737 
Q 1050 2975 1600 2975 
Q 2100 2975 2387 2750 
Q 2675 2525 2675 2150 
L 2175 2150 
Q 2175 2375 2012 2462 
Q 1850 2550 1600 2550 
Q 1275 2550 1137 2437 
Q 1000 2325 1000 2175 
Q 1000 2000 1125 1900 
Q 1250 1800 1650 1750 
Q 2300 1650 2525 1437 
Q 2750 1225 2750 900 
z
" transform="scale(0.015625)"/>
       <path id="SimHei-6e" d="M 2800 125 
L 2300 125 
L 2300 1925 
Q 2300 2225 2150 2400 
Q 2000 2575 1750 2575 
Q 1425 2575 1137 2237 
Q 850 1900 850 1400 
L 850 125 
L 350 125 
L 350 2925 
L 850 2925 
L 850 2400 
Q 1050 2675 1287 2825 
Q 1525 2975 1900 2975 
Q 2350 2975 2575 2725 
Q 2800 2475 2800 2100 
L 2800 125 
z
" transform="scale(0.015625)"/>
       <path id="SimHei-28" d="M 2975 -200 
L 2700 -475 
Q 2075 125 1762 775 
Q 1450 1425 1450 2250 
Q 1450 3075 1762 3725 
Q 2075 4375 2700 5000 
L 2975 4725 
Q 2400 4175 2112 3587 
Q 1825 3000 1825 2250 
Q 1825 1500 2112 912 
Q 2400 325 2975 -200 
z
" transform="scale(0.015625)"/>
       <path id="SimHei-78" d="M 2875 125 
L 2275 125 
L 1550 1200 
L 825 125 
L 225 125 
L 1250 1550 
L 300 2925 
L 900 2925 
L 1550 1875 
L 2200 2925 
L 2800 2925 
L 1850 1550 
L 2875 125 
z
" transform="scale(0.015625)"/>
       <path id="SimHei-29" d="M 1675 2250 
Q 1675 1425 1362 775 
Q 1050 125 425 -475 
L 150 -200 
Q 725 325 1012 912 
Q 1300 1500 1300 2250 
Q 1300 3000 1012 3587 
Q 725 4175 150 4725 
L 425 5000 
Q 1050 4375 1362 3725 
Q 1675 3075 1675 2250 
z
" transform="scale(0.015625)"/>
      </defs>
      <use xlink:href="#SimHei-79"/>
      <use xlink:href="#SimHei-3d" x="50"/>
      <use xlink:href="#SimHei-32" x="100"/>
      <use xlink:href="#SimHei-73" x="150"/>
      <use xlink:href="#SimHei-69" x="200"/>
      <use xlink:href="#SimHei-6e" x="250"/>
      <use xlink:href="#SimHei-28" x="300"/>
      <use xlink:href="#SimHei-78" x="350"/>
      <use xlink:href="#SimHei-29" x="400"/>
     </g>
    </g>
    <g id="line2d_18">
     <path d="M 322.72 69.081375 
L 332.72 69.081375 
L 342.72 69.081375 
" style="fill: none; stroke-dasharray: 7.4,3.2; stroke-dashoffset: 0; stroke: #0000ff; stroke-width: 2"/>
    </g>
    <g id="text_18">
     <!-- y=2cos(x^2) -->
     <g transform="translate(350.72 72.581375) scale(0.1 -0.1)">
      <defs>
       <path id="SimHei-63" d="M 2850 1250 
Q 2850 725 2487 400 
Q 2125 75 1575 75 
Q 1025 75 625 462 
Q 225 850 225 1525 
Q 225 2200 625 2587 
Q 1025 2975 1575 2975 
Q 2125 2975 2450 2687 
Q 2775 2400 2775 2000 
L 2225 2000 
Q 2200 2300 2012 2412 
Q 1825 2525 1575 2525 
Q 1275 2525 1025 2287 
Q 775 2050 775 1525 
Q 775 1000 1025 762 
Q 1275 525 1575 525 
Q 1900 525 2100 700 
Q 2300 875 2300 1250 
L 2850 1250 
z
" transform="scale(0.015625)"/>
       <path id="SimHei-6f" d="M 2925 1525 
Q 2925 875 2525 475 
Q 2125 75 1575 75 
Q 1025 75 625 475 
Q 225 875 225 1525 
Q 225 2175 625 2575 
Q 1025 2975 1575 2975 
Q 2125 2975 2525 2575 
Q 2925 2175 2925 1525 
z
M 2375 1525 
Q 2375 2025 2125 2275 
Q 1875 2525 1575 2525 
Q 1275 2525 1025 2275 
Q 775 2025 775 1525 
Q 775 1025 1025 775 
Q 1275 525 1575 525 
Q 1875 525 2125 775 
Q 2375 1025 2375 1525 
z
" transform="scale(0.015625)"/>
       <path id="SimHei-5e" d="M 2750 4125 
L 2300 4125 
L 1550 4750 
L 800 4125 
L 350 4125 
L 1250 5150 
L 1850 5150 
L 2750 4125 
z
" transform="scale(0.015625)"/>
      </defs>
      <use xlink:href="#SimHei-79"/>
      <use xlink:href="#SimHei-3d" x="50"/>
      <use xlink:href="#SimHei-32" x="100"/>
      <use xlink:href="#SimHei-63" x="150"/>
      <use xlink:href="#SimHei-6f" x="200"/>
      <use xlink:href="#SimHei-73" x="250"/>
      <use xlink:href="#SimHei-28" x="300"/>
      <use xlink:href="#SimHei-78" x="350"/>
      <use xlink:href="#SimHei-5e" x="400"/>
      <use xlink:href="#SimHei-32" x="450"/>
      <use xlink:href="#SimHei-29" x="500"/>
     </g>
    </g>
   </g>
  </g>
 </g>
 <defs>
  <clipPath id="p39830d2c55">
   <rect x="57.6" y="41.472" width="357.12" height="266.112"/>
  </clipPath>
 </defs>
</svg>
