<?xml version="1.0" encoding="utf-8" standalone="no"?>
<!DOCTYPE svg PUBLIC "-//W3C//DTD SVG 1.1//EN"
  "http://www.w3.org/Graphics/SVG/1.1/DTD/svg11.dtd">
<svg xmlns:xlink="http://www.w3.org/1999/xlink" width="460.8pt" height="345.6pt" viewBox="0 0 460.8 345.6" xmlns="http://www.w3.org/2000/svg" version="1.1">
 <metadata>
  <rdf:RDF xmlns:dc="http://purl.org/dc/elements/1.1/" xmlns:cc="http://creativecommons.org/ns#" xmlns:rdf="http://www.w3.org/1999/02/22-rdf-syntax-ns#">
   <cc:Work>
    <dc:type rdf:resource="http://purl.org/dc/dcmitype/StillImage"/>
    <dc:date>2023-02-17T20:53:58.606297</dc:date>
    <dc:format>image/svg+xml</dc:format>
    <dc:creator>
     <cc:Agent>
      <dc:title>Matplotlib v3.6.2, https://matplotlib.org/</dc:title>
     </cc:Agent>
    </dc:creator>
   </cc:Work>
  </rdf:RDF>
 </metadata>
 <defs>
  <style type="text/css">*{stroke-linejoin: round; stroke-linecap: butt}</style>
 </defs>
 <g id="figure_1">
  <g id="patch_1">
   <path d="M 0 345.6 
L 460.8 345.6 
L 460.8 0 
L 0 0 
z
" style="fill: #ffffff"/>
  </g>
  <g id="axes_1">
   <g id="patch_2">
    <path d="M 57.6 307.584 
L 414.72 307.584 
L 414.72 41.472 
L 57.6 41.472 
z
" style="fill: #ffffff"/>
   </g>
   <g id="matplotlib.axis_1">
    <g id="xtick_1">
     <g id="line2d_1">
      <defs>
       <path id="me421c35e79" d="M 0 0 
L 0 3.5 
" style="stroke: #000000; stroke-width: 0.8"/>
      </defs>
      <g>
       <use xlink:href="#me421c35e79" x="83.963958" y="307.584" style="stroke: #000000; stroke-width: 0.8"/>
      </g>
     </g>
     <g id="text_1">
      <!-- −15 -->
      <g transform="translate(73.411614 322.182437) scale(0.1 -0.1)">
       <defs>
        <path id="DejaVuSans-2212" d="M 678 2272 
L 4684 2272 
L 4684 1741 
L 678 1741 
L 678 2272 
z
" transform="scale(0.015625)"/>
        <path id="DejaVuSans-31" d="M 794 531 
L 1825 531 
L 1825 4091 
L 703 3866 
L 703 4441 
L 1819 4666 
L 2450 4666 
L 2450 531 
L 3481 531 
L 3481 0 
L 794 0 
L 794 531 
z
" transform="scale(0.015625)"/>
        <path id="DejaVuSans-35" d="M 691 4666 
L 3169 4666 
L 3169 4134 
L 1269 4134 
L 1269 2991 
Q 1406 3038 1543 3061 
Q 1681 3084 1819 3084 
Q 2600 3084 3056 2656 
Q 3513 2228 3513 1497 
Q 3513 744 3044 326 
Q 2575 -91 1722 -91 
Q 1428 -91 1123 -41 
Q 819 9 494 109 
L 494 744 
Q 775 591 1075 516 
Q 1375 441 1709 441 
Q 2250 441 2565 725 
Q 2881 1009 2881 1497 
Q 2881 1984 2565 2268 
Q 2250 2553 1709 2553 
Q 1456 2553 1204 2497 
Q 953 2441 691 2322 
L 691 4666 
z
" transform="scale(0.015625)"/>
       </defs>
       <use xlink:href="#DejaVuSans-2212"/>
       <use xlink:href="#DejaVuSans-31" x="83.789062"/>
       <use xlink:href="#DejaVuSans-35" x="147.412109"/>
      </g>
     </g>
    </g>
    <g id="xtick_2">
     <g id="line2d_2">
      <g>
       <use xlink:href="#me421c35e79" x="134.695972" y="307.584" style="stroke: #000000; stroke-width: 0.8"/>
      </g>
     </g>
     <g id="text_2">
      <!-- −10 -->
      <g transform="translate(124.143628 322.182437) scale(0.1 -0.1)">
       <defs>
        <path id="DejaVuSans-30" d="M 2034 4250 
Q 1547 4250 1301 3770 
Q 1056 3291 1056 2328 
Q 1056 1369 1301 889 
Q 1547 409 2034 409 
Q 2525 409 2770 889 
Q 3016 1369 3016 2328 
Q 3016 3291 2770 3770 
Q 2525 4250 2034 4250 
z
M 2034 4750 
Q 2819 4750 3233 4129 
Q 3647 3509 3647 2328 
Q 3647 1150 3233 529 
Q 2819 -91 2034 -91 
Q 1250 -91 836 529 
Q 422 1150 422 2328 
Q 422 3509 836 4129 
Q 1250 4750 2034 4750 
z
" transform="scale(0.015625)"/>
       </defs>
       <use xlink:href="#DejaVuSans-2212"/>
       <use xlink:href="#DejaVuSans-31" x="83.789062"/>
       <use xlink:href="#DejaVuSans-30" x="147.412109"/>
      </g>
     </g>
    </g>
    <g id="xtick_3">
     <g id="line2d_3">
      <g>
       <use xlink:href="#me421c35e79" x="185.427986" y="307.584" style="stroke: #000000; stroke-width: 0.8"/>
      </g>
     </g>
     <g id="text_3">
      <!-- −5 -->
      <g transform="translate(178.056892 322.182437) scale(0.1 -0.1)">
       <use xlink:href="#DejaVuSans-2212"/>
       <use xlink:href="#DejaVuSans-35" x="83.789062"/>
      </g>
     </g>
    </g>
    <g id="xtick_4">
     <g id="line2d_4">
      <g>
       <use xlink:href="#me421c35e79" x="236.16" y="307.584" style="stroke: #000000; stroke-width: 0.8"/>
      </g>
     </g>
     <g id="text_4">
      <!-- 0 -->
      <g transform="translate(232.97875 322.182437) scale(0.1 -0.1)">
       <use xlink:href="#DejaVuSans-30"/>
      </g>
     </g>
    </g>
    <g id="xtick_5">
     <g id="line2d_5">
      <g>
       <use xlink:href="#me421c35e79" x="286.892014" y="307.584" style="stroke: #000000; stroke-width: 0.8"/>
      </g>
     </g>
     <g id="text_5">
      <!-- 5 -->
      <g transform="translate(283.710764 322.182437) scale(0.1 -0.1)">
       <use xlink:href="#DejaVuSans-35"/>
      </g>
     </g>
    </g>
    <g id="xtick_6">
     <g id="line2d_6">
      <g>
       <use xlink:href="#me421c35e79" x="337.624028" y="307.584" style="stroke: #000000; stroke-width: 0.8"/>
      </g>
     </g>
     <g id="text_6">
      <!-- 10 -->
      <g transform="translate(331.261528 322.182437) scale(0.1 -0.1)">
       <use xlink:href="#DejaVuSans-31"/>
       <use xlink:href="#DejaVuSans-30" x="63.623047"/>
      </g>
     </g>
    </g>
    <g id="xtick_7">
     <g id="line2d_7">
      <g>
       <use xlink:href="#me421c35e79" x="388.356042" y="307.584" style="stroke: #000000; stroke-width: 0.8"/>
      </g>
     </g>
     <g id="text_7">
      <!-- 15 -->
      <g transform="translate(381.993542 322.182437) scale(0.1 -0.1)">
       <use xlink:href="#DejaVuSans-31"/>
       <use xlink:href="#DejaVuSans-35" x="63.623047"/>
      </g>
     </g>
    </g>
   </g>
   <g id="matplotlib.axis_2">
    <g id="ytick_1">
     <g id="line2d_8">
      <defs>
       <path id="m92c9da6408" d="M 0 0 
L -3.5 0 
" style="stroke: #000000; stroke-width: 0.8"/>
      </defs>
      <g>
       <use xlink:href="#m92c9da6408" x="57.6" y="278.788947" style="stroke: #000000; stroke-width: 0.8"/>
      </g>
     </g>
     <g id="text_8">
      <!-- −15 -->
      <g transform="translate(29.495313 282.588166) scale(0.1 -0.1)">
       <use xlink:href="#DejaVuSans-2212"/>
       <use xlink:href="#DejaVuSans-31" x="83.789062"/>
       <use xlink:href="#DejaVuSans-35" x="147.412109"/>
      </g>
     </g>
    </g>
    <g id="ytick_2">
     <g id="line2d_9">
      <g>
       <use xlink:href="#m92c9da6408" x="57.6" y="236.960534" style="stroke: #000000; stroke-width: 0.8"/>
      </g>
     </g>
     <g id="text_9">
      <!-- −10 -->
      <g transform="translate(29.495313 240.759752) scale(0.1 -0.1)">
       <use xlink:href="#DejaVuSans-2212"/>
       <use xlink:href="#DejaVuSans-31" x="83.789062"/>
       <use xlink:href="#DejaVuSans-30" x="147.412109"/>
      </g>
     </g>
    </g>
    <g id="ytick_3">
     <g id="line2d_10">
      <g>
       <use xlink:href="#m92c9da6408" x="57.6" y="195.13212" style="stroke: #000000; stroke-width: 0.8"/>
      </g>
     </g>
     <g id="text_10">
      <!-- −5 -->
      <g transform="translate(35.857813 198.931339) scale(0.1 -0.1)">
       <use xlink:href="#DejaVuSans-2212"/>
       <use xlink:href="#DejaVuSans-35" x="83.789062"/>
      </g>
     </g>
    </g>
    <g id="ytick_4">
     <g id="line2d_11">
      <g>
       <use xlink:href="#m92c9da6408" x="57.6" y="153.303707" style="stroke: #000000; stroke-width: 0.8"/>
      </g>
     </g>
     <g id="text_11">
      <!-- 0 -->
      <g transform="translate(44.2375 157.102925) scale(0.1 -0.1)">
       <use xlink:href="#DejaVuSans-30"/>
      </g>
     </g>
    </g>
    <g id="ytick_5">
     <g id="line2d_12">
      <g>
       <use xlink:href="#m92c9da6408" x="57.6" y="111.475293" style="stroke: #000000; stroke-width: 0.8"/>
      </g>
     </g>
     <g id="text_12">
      <!-- 5 -->
      <g transform="translate(44.2375 115.274512) scale(0.1 -0.1)">
       <use xlink:href="#DejaVuSans-35"/>
      </g>
     </g>
    </g>
    <g id="ytick_6">
     <g id="line2d_13">
      <g>
       <use xlink:href="#m92c9da6408" x="57.6" y="69.64688" style="stroke: #000000; stroke-width: 0.8"/>
      </g>
     </g>
     <g id="text_13">
      <!-- 10 -->
      <g transform="translate(37.875 73.446098) scale(0.1 -0.1)">
       <use xlink:href="#DejaVuSans-31"/>
       <use xlink:href="#DejaVuSans-30" x="63.623047"/>
      </g>
     </g>
    </g>
   </g>
   <g id="line2d_14">
    <path d="M 236.16 111.475293 
L 236.29735 109.950162 
L 236.790821 107.305112 
L 237.870338 103.493529 
L 238.693952 101.204253 
L 239.737322 98.69424 
L 241.02063 95.992988 
L 242.561635 93.132226 
L 244.375486 90.145549 
L 246.474556 87.06802 
L 248.868305 83.935771 
L 251.563162 80.78558 
L 254.562447 77.654464 
L 257.866304 74.579252 
L 261.471684 71.596188 
L 265.372335 68.740527 
L 269.558842 66.046162 
L 274.018678 63.54527 
L 278.736296 61.267978 
L 283.693241 59.242072 
L 288.868295 57.492729 
L 294.237641 56.042292 
L 299.775057 54.910084 
L 305.452126 54.112262 
L 311.238471 53.661714 
L 317.10201 53.568 
L 323.009217 53.837334 
L 328.92541 54.47261 
L 334.815041 55.473471 
L 340.641998 56.836411 
L 346.36991 58.554924 
L 351.962461 60.619677 
L 357.383696 63.018719 
L 362.598336 65.737722 
L 367.572072 68.760233 
L 372.271869 72.067956 
L 376.666243 75.641042 
L 380.725539 79.458396 
L 384.422183 83.49798 
L 387.730923 87.737122 
L 390.629045 92.152822 
L 393.096573 96.722045 
L 395.116438 101.422006 
L 396.674629 106.230438 
L 397.760315 111.125835 
L 398.365937 116.087675 
L 398.487273 121.09662 
L 398.123477 126.134685 
L 397.277086 131.185372 
L 395.953995 136.233782 
L 394.163412 141.266685 
L 391.91777 146.272568 
L 389.232626 151.241641 
L 386.126522 156.16582 
L 382.620828 161.038671 
L 378.73955 165.855336 
L 374.509133 170.612428 
L 369.95822 175.307898 
L 365.117415 179.940894 
L 360.019011 184.511588 
L 354.696717 189.021004 
L 349.185365 193.470823 
L 343.520609 197.863192 
L 331.875793 206.4853 
L 314.162656 219.046207 
L 296.987068 231.191974 
L 286.254934 239.050954 
L 276.346351 246.69076 
L 267.430568 254.066792 
L 263.385615 257.637134 
L 259.631619 261.116983 
L 256.176419 264.496185 
L 253.024667 267.763827 
L 250.177814 270.908373 
L 247.634122 273.917812 
L 245.388708 276.779828 
L 243.433614 279.481967 
L 241.75791 282.01182 
L 240.347815 284.357205 
L 238.256026 288.44805 
L 236.997424 291.668335 
L 236.377753 293.946454 
L 236.159361 295.488 
L 236.142773 295.22979 
L 235.942247 293.946454 
L 235.322576 291.668335 
L 234.063974 288.44805 
L 233.133148 286.506345 
L 231.972185 284.357205 
L 230.56209 282.01182 
L 228.886386 279.481967 
L 226.931292 276.779828 
L 224.685878 273.917812 
L 222.142186 270.908373 
L 219.295333 267.763827 
L 216.143581 264.496185 
L 212.688381 261.116983 
L 208.934385 257.637134 
L 204.889432 254.066792 
L 200.564504 250.415234 
L 191.133884 242.900619 
L 180.789734 235.14678 
L 169.72201 227.189304 
L 140.444207 206.4853 
L 128.799391 197.863192 
L 123.134635 193.470823 
L 117.623283 189.021004 
L 112.300989 184.511588 
L 107.202585 179.940894 
L 102.36178 175.307898 
L 97.810867 170.612428 
L 93.58045 165.855336 
L 89.699172 161.038671 
L 86.193478 156.16582 
L 83.087374 151.241641 
L 80.40223 146.272568 
L 78.156588 141.266685 
L 76.366005 136.233782 
L 75.042914 131.185372 
L 74.196523 126.134685 
L 73.832727 121.09662 
L 73.954063 116.087675 
L 74.559685 111.125835 
L 75.645371 106.230438 
L 77.203562 101.422006 
L 79.223427 96.722045 
L 81.690955 92.152822 
L 84.589077 87.737122 
L 87.897817 83.49798 
L 91.594461 79.458396 
L 95.653757 75.641042 
L 100.048131 72.067956 
L 104.747928 68.760233 
L 109.721664 65.737722 
L 114.936304 63.018719 
L 120.357539 60.619677 
L 125.95009 58.554924 
L 131.678002 56.836411 
L 137.504959 55.473471 
L 143.39459 54.47261 
L 149.310783 53.837334 
L 155.21799 53.568 
L 161.081529 53.661714 
L 166.867874 54.112262 
L 172.544943 54.910084 
L 178.082359 56.042292 
L 183.451705 57.492729 
L 188.626759 59.242072 
L 193.583704 61.267978 
L 198.301322 63.54527 
L 202.761158 66.046162 
L 206.947665 68.740527 
L 210.848316 71.596188 
L 214.453696 74.579252 
L 217.757553 77.654464 
L 220.756838 80.78558 
L 223.451695 83.935771 
L 225.845444 87.06802 
L 227.944514 90.145549 
L 229.758365 93.132226 
L 231.29937 95.992988 
L 232.582678 98.69424 
L 233.626048 101.204253 
L 235.075914 105.535153 
L 235.835566 108.782579 
L 236.16 111.475293 
L 236.16 111.475293 
" clip-path="url(#p70c72ff073)" style="fill: none; stroke: #ff0000; stroke-width: 1.5; stroke-linecap: square"/>
   </g>
   <g id="patch_3">
    <path d="M 57.6 307.584 
L 57.6 41.472 
" style="fill: none; stroke: #000000; stroke-width: 0.8; stroke-linejoin: miter; stroke-linecap: square"/>
   </g>
   <g id="patch_4">
    <path d="M 414.72 307.584 
L 414.72 41.472 
" style="fill: none; stroke: #000000; stroke-width: 0.8; stroke-linejoin: miter; stroke-linecap: square"/>
   </g>
   <g id="patch_5">
    <path d="M 57.6 307.584 
L 414.72 307.584 
" style="fill: none; stroke: #000000; stroke-width: 0.8; stroke-linejoin: miter; stroke-linecap: square"/>
   </g>
   <g id="patch_6">
    <path d="M 57.6 41.472 
L 414.72 41.472 
" style="fill: none; stroke: #000000; stroke-width: 0.8; stroke-linejoin: miter; stroke-linecap: square"/>
   </g>
  </g>
 </g>
 <defs>
  <clipPath id="p70c72ff073">
   <rect x="57.6" y="41.472" width="357.12" height="266.112"/>
  </clipPath>
 </defs>
</svg>
